<svg width="18" height="17" viewBox="0 0 18 17" fill="none" xmlns="http://www.w3.org/2000/svg">
<path d="M14.7273 0L10.6364 3.68182V12.6818L14.7273 9V0ZM4.5 2.45455C2.90455 2.45455 1.18636 2.78182 0 3.68182V15.6764C0 15.8809 0.204545 16.0855 0.409091 16.0855C0.490909 16.0855 0.531818 16.0282 0.613636 16.0282C1.71818 15.4964 3.31364 15.1364 4.5 15.1364C6.09545 15.1364 7.81364 15.4636 9 16.3636C10.1045 15.6682 12.1091 15.1364 13.5 15.1364C14.85 15.1364 16.2409 15.39 17.3864 16.0036C17.4682 16.0445 17.5091 16.0282 17.5909 16.0282C17.7955 16.0282 18 15.8236 18 15.6191V3.68182C17.5091 3.31364 16.9773 3.06818 16.3636 2.86364V4.5V9V13.9091C15.4636 13.6227 14.4818 13.5 13.5 13.5C12.1091 13.5 10.1045 14.0318 9 14.7273V9V5.31818V3.68182C7.81364 2.78182 6.09545 2.45455 4.5 2.45455Z" fill="white" fill-opacity="0.87"/>
</svg>
