<svg width="55" height="73" viewBox="0 0 55 73" fill="none" xmlns="http://www.w3.org/2000/svg">
<g clip-path="url(#clip0)">
<path d="M0.813995 -0.528076V52.9099C0.813995 56.7379 3.036 60.1919 6.77599 61.8419L27.522 70.9939L48.268 61.8419C52.008 60.1919 54.23 56.7379 54.23 52.9099V-0.528076H0.813995Z" fill="#2178CD" stroke="#474747" stroke-miterlimit="10"/>
<path d="M28.4456 1.43362C25.0093 1.40334 23.1171 3.93139 23.0414 6.6865C22.9657 9.65354 24.4341 11.2279 26.5231 11.7577C26.5988 11.5004 26.5988 11.2128 26.6139 10.804C23.5258 10.032 24.7823 4.05249 28.1883 4.05249C31.1856 4.06763 33.0173 9.65354 29.7021 10.8192C29.7172 11.243 29.7475 11.5306 29.8535 11.8031C32.109 11.3036 33.5623 9.60813 33.5774 6.71677C33.5774 4.00707 31.5641 1.44876 28.4456 1.43362Z" fill="#22B0FF" stroke="#474747" stroke-width="1.4533"/>
<path d="M28.37 1.87256C31.1099 1.87256 33.2444 4.12812 33.2444 6.86809C33.2444 9.60807 31.0342 11.6517 28.2943 11.6517C25.5543 11.6517 23.4198 9.89569 23.4198 6.82268C23.4198 4.0827 25.63 1.87256 28.37 1.87256Z" fill="#22B0FF" stroke="#474747" stroke-width="1.4533"/>
<path d="M25.872 12.9361C26.642 12.4081 26.774 11.9241 26.84 11.1101C27.698 11.7921 28.776 11.6821 29.48 11.2421C29.568 12.1881 29.832 12.5841 30.558 12.9141C30.448 13.7501 26.114 13.7941 25.872 12.9361Z" fill="white" stroke="#474747" stroke-miterlimit="10"/>
<path d="M39.27 26.0261C39.27 25.8941 39.27 25.0141 39.468 25.0141C39.952 25.0141 39.688 28.3801 39.732 28.9741C39.776 29.5681 39.688 29.7001 39.248 29.7221C38.258 29.7441 38.852 26.7961 38.632 25.0801C38.588 24.7941 38.874 24.8821 38.962 24.9481C39.204 25.1461 39.116 27.9841 39.182 27.9841C39.292 28.0061 39.292 26.4441 39.27 26.0261Z" fill="white" stroke="#474747" stroke-miterlimit="10"/>
<path d="M33.682 12.8701L35.134 11.0661C33.44 7.01814 34.914 0.132137 39.512 2.33214C47.08 6.33614 43.67 24.0461 43.868 30.2061C44.088 36.2341 44.572 42.8121 45.936 47.5641C45.54 47.3881 44.726 47.5201 44.55 47.5201C44.66 49.0601 45.276 50.5341 45.496 51.5681C43.758 51.5461 42.174 49.2581 41.492 47.5201L40.876 48.0921L40.766 47.3881L41.47 46.7501C39.952 43.3621 38.874 41.2721 38.17 28.9741C39.534 26.9501 39.952 24.5961 39.534 20.3941C39.248 16.8081 38.5 12.7161 33.682 12.8701Z" fill="#22B0FF" stroke="#474747"/>
<path d="M41.03 23.2322C40.766 23.2762 40.964 21.5382 40.898 20.0202L40.37 20.1082C40.458 23.6282 39.974 25.8502 41.052 25.7182C41.998 25.5862 41.712 24.4202 41.8 19.8882L41.25 19.9982C41.206 21.7362 41.426 23.1662 41.03 23.2322Z" fill="white" stroke="#474747"/>
<path d="M18.876 19.6241C12.188 26.6421 14.806 22.1541 11.968 25.0141C11.11 25.8721 11.726 26.8401 12.716 27.6101C13.882 28.5121 14.388 27.6321 14.85 26.7741C15.378 26.4881 15.598 26.1361 15.73 25.5861C16.676 25.0141 17.468 24.7061 18.634 23.7821C18.59 25.1681 17.952 36.9821 17.732 38.4121C18.128 42.2621 19.316 45.7601 21.318 49.4341L22.286 50.4241C22.33 52.0081 22.44 53.4821 22.484 53.9221C22.748 56.7821 19.536 55.9901 19.47 59.5101C23.848 59.0701 22.462 58.3441 24.882 56.8921C26.752 55.7921 25.014 55.1761 25.608 52.2941C26.95 52.9761 28.996 53.0861 29.898 52.9981C29.92 53.9441 28.798 55.2861 30.47 56.1881C31.504 56.7381 31.812 59.2681 35.354 58.6961C35.442 55.8581 32.538 56.8261 32.428 52.4481C33.704 52.1841 38.654 49.4561 41.536 46.7721C39.798 43.1641 39.05 41.2501 38.214 28.9741C39.864 26.2241 39.908 23.7601 39.688 20.3941C38.082 7.54612 29.766 16.4121 29.656 10.7801C32.978 9.61412 31.174 4.04812 28.16 4.02612C24.75 4.02612 23.54 9.98812 26.598 10.7361C26.554 15.8401 21.274 8.22812 18.876 19.6241Z" fill="#004D77"/>
<path d="M37.642 14.3442C37.994 14.8062 38.214 15.0922 38.522 15.6202C39.688 15.7082 38.874 12.4082 38.06 8.49219L37.796 9.15219C38.346 12.2542 38.632 13.5742 38.258 13.6622C38.038 13.7062 37.862 11.4842 37.554 9.65819L37.18 10.7802C37.664 13.8382 37.642 14.3442 37.642 14.3442Z" fill="white" stroke="#474747" stroke-linejoin="round"/>
<path d="M38.302 7.96418C39.314 11.6382 39.864 13.8822 40.612 13.4202C41.932 12.5842 40.59 8.88818 38.896 6.53418L38.654 7.04018C39.204 8.22818 40.48 11.3522 40.106 11.5502C39.93 11.6382 39.226 9.13018 38.522 7.41418L38.302 7.96418Z" fill="white" stroke="#474747" stroke-linejoin="round"/>
<path d="M41.426 33.2641C40.546 33.3741 40.436 31.2181 40.326 26.5541L40.788 26.4661C40.876 27.6541 40.722 30.1181 41.052 30.0741C41.448 30.0301 41.294 28.5341 41.25 26.3781L41.756 26.2681C41.8 30.8001 42.306 33.1541 41.426 33.2641Z" fill="white" stroke="#474747"/>
<path d="M39.534 34.5401C39.314 34.5401 39.336 32.0761 39.204 31.086L38.742 31.152C39.204 37.0261 39.16 37.9721 39.82 37.9281C40.678 37.8841 40.392 37.0041 39.996 30.998L39.534 31.02C39.578 32.2081 39.842 34.5401 39.534 34.5401Z" fill="white" stroke="#474747"/>
<path d="M40.04 41.9761L40.854 44.6161C41.316 44.3741 41.272 43.8021 40.216 38.5881L39.71 38.6981C40.04 40.4581 40.436 41.8881 40.04 41.9761Z" fill="white" stroke="#474747"/>
<path d="M39.05 27.2802C39.182 26.9502 39.358 26.2902 39.534 25.8062C39.776 28.9302 39.842 30.2502 39.16 30.3602C38.434 30.4702 38.544 29.6122 38.434 28.6442L38.764 27.9182C38.874 28.2042 38.808 28.8422 38.984 28.7542C39.226 28.6662 39.094 27.5882 39.05 27.2802Z" fill="white" stroke="#474747"/>
<path d="M22.418 19.866C22.418 19.866 22.418 20.086 22.726 20.13C22.66 22.22 23.056 23.782 22.704 24.904C22.088 26.84 21.494 28.754 20.614 39.622C20.526 40.59 21.56 40.854 21.89 41.052C22.22 43.802 22.572 43.032 22.55 43.714C22.55 44.088 22.198 43.384 22.286 50.094L21.45 49.236C19.536 45.892 18.326 41.976 17.952 38.456C18.48 31.988 18.656 27.5 18.832 23.606C19.866 22.968 20.79 22.264 21.582 21.582C21.978 20.834 22.242 20.416 22.418 19.866Z" fill="#D3D3D3" stroke="#474747" stroke-miterlimit="10"/>
<path d="M26.048 45.7382C26.378 47.9602 23.628 49.2802 22.528 48.4002C22.418 46.4422 22.616 44.6162 22.616 44.6162C24.574 44.0882 22.44 44.9242 22.176 41.0962C23.474 41.4922 24.42 41.4922 25.938 41.4922C26.356 43.4062 24.662 44.3522 26.048 45.7382Z" fill="white" stroke="#474747" stroke-miterlimit="10"/>
<path d="M22.506 48.7742C22.506 48.7742 22.55 51.3702 22.55 51.5242C23.716 52.3382 25.036 51.5022 25.41 50.9522C25.432 49.5002 26.026 48.4442 25.894 47.5642C25.476 48.2462 23.87 49.5222 22.506 48.7742Z" fill="white" stroke="#474747" stroke-miterlimit="10"/>
<path d="M25.41 51.2822C24.684 52.1622 23.54 52.3382 22.55 51.8982C22.616 52.8002 22.704 53.7462 22.704 54.5602C23.386 54.9122 24.86 54.2742 25.212 53.7682C25.234 52.8662 25.432 52.1622 25.41 51.2822Z" fill="white" stroke="#474747" stroke-miterlimit="10"/>
<path d="M25.256 54.1421C24.75 54.5161 24.266 55.0661 22.682 54.9341C22.242 56.8261 19.976 56.7821 19.734 59.2241C23.386 59.0481 22.792 57.6621 24.64 56.7601C26.004 56.0781 25.388 55.3521 25.256 54.1421Z" fill="white" stroke="#474747" stroke-miterlimit="10"/>
<path d="M32.23 41.1621C31.35 41.4261 30.36 41.5141 28.468 41.4921C28.226 43.9781 29.282 43.5821 29.062 44.5061C28.402 47.2121 31.328 47.7181 32.34 46.3321C32.538 45.2981 32.472 44.1981 32.23 41.1621ZM31.592 43.8461C31.68 44.1321 30.932 45.6061 30.404 43.9561C30.69 44.1101 31.35 44.0001 31.592 43.8461Z" fill="white" stroke="#474747" stroke-miterlimit="10"/>
<path d="M29.106 46.53C29.062 47.454 29.018 47.938 29.15 48.928C29.414 51.04 31.57 50.754 32.384 49.874L32.34 46.684C31.988 47.366 29.942 47.806 29.106 46.53Z" fill="white" stroke="#474747" stroke-miterlimit="10"/>
<path d="M30.096 52.7121C29.876 51.8981 29.766 51.5241 29.634 50.4241C30.536 51.0181 31.35 50.9961 32.362 50.2261C32.406 51.1281 32.208 52.7561 32.208 52.7561C31.592 53.2621 30.866 53.1741 30.096 52.7121Z" fill="white" stroke="#474747" stroke-miterlimit="10"/>
<path d="M32.252 53.042C32.626 56.936 35.31 56.386 35.134 58.432C32.054 58.872 31.68 56.54 30.624 55.99C29.04 55.132 30.162 54.296 30.118 53.064C30.976 53.57 31.592 53.46 32.252 53.042Z" fill="white" stroke="#474747" stroke-miterlimit="10"/>
<path d="M25.608 14.124C25.41 14.3 25.168 14.388 24.706 14.41C24.706 15.356 24.574 16.588 24.332 17.336C24.42 17.798 24.288 18.106 23.98 19.712C23.914 20.108 23.716 20.196 22.924 20.152C22.968 21.384 23.012 22.924 23.034 24.002C26.84 24.002 25.3 24.75 29.898 24.772C29.788 24.112 29.7 23.254 29.656 22.286C29.194 22.418 28.732 22.704 28.116 22.704C26.246 22.704 24.552 21.384 24.552 19.492C24.552 17.6 26.026 16.126 27.896 16.126C28.578 16.126 29.128 16.346 29.128 16.346C28.138 15.664 27.148 14.872 25.608 14.124Z" fill="white" stroke="#474747" stroke-miterlimit="10"/>
<path d="M29.964 25.0361L30.162 25.8941C26.224 26.5541 27.038 24.9921 22.902 25.0141L23.034 24.3101C26.268 24.3321 25.872 25.0361 29.964 25.0361Z" fill="white" stroke="#474747" stroke-miterlimit="10"/>
<path d="M22.814 25.2781L22.55 26.3781C23.672 26.2241 24.97 27.5221 26.158 28.5121C27.28 29.4581 30.228 28.9961 30.822 27.8521C30.514 27.3461 30.294 26.5321 30.206 26.1801C25.454 26.8181 27.72 25.3441 22.814 25.2781Z" fill="white" stroke="#474747" stroke-miterlimit="10"/>
<path d="M28.468 29.216C27.522 29.348 26.862 29.084 26.202 28.864C25.784 31.988 25.696 33.704 25.52 37.994C25.498 38.522 28.644 38.412 28.644 37.994C28.6 35.002 28.622 32.142 28.468 29.216Z" fill="white" stroke="#474747" stroke-miterlimit="10"/>
<path d="M23.936 27.1041C23.936 27.1041 22.55 26.0921 22.418 26.8841C21.824 29.9641 21.494 32.5381 21.098 37.0041C21.01 37.3781 22.88 37.9941 22.902 37.5981C23.298 31.9001 23.936 27.1041 23.936 27.1041Z" fill="white" stroke="#474747" stroke-miterlimit="10"/>
<path d="M25.278 38.9841C24.816 39.2261 23.804 39.2041 23.122 38.8081C23.078 39.4461 23.078 39.8861 23.034 40.7881C22.858 41.2501 25.234 41.3381 25.3 41.0521C25.278 40.4141 25.256 39.7321 25.278 38.9841Z" fill="white" stroke="#474747" stroke-miterlimit="10"/>
<path d="M28.754 29.2162C29.326 29.1502 30.118 28.8422 30.514 28.5122C30.514 28.5122 31.504 35.0682 31.636 37.9282C31.702 38.3462 29.04 38.5222 28.974 37.9722C28.864 35.1342 28.754 29.2162 28.754 29.2162Z" fill="white" stroke="#474747" stroke-miterlimit="10"/>
<path d="M30.69 28.336L30.91 28.05C31.372 29.106 32.12 29.964 32.758 30.47C32.758 30.47 33.286 34.628 33.572 37.356C33.638 37.686 31.966 38.236 31.878 37.884C31.658 35.112 30.69 28.336 30.69 28.336Z" fill="white" stroke="#474747" stroke-miterlimit="10"/>
<path d="M22.814 38.7421C21.736 38.6541 21.296 38.0821 21.032 37.4661C20.922 38.4561 20.878 39.1821 20.856 39.9301C20.856 40.3261 22.748 41.2501 22.77 40.7881C22.77 39.9301 22.77 39.5341 22.814 38.7421Z" fill="white" stroke="#474747" stroke-miterlimit="10"/>
<path d="M28.644 39.0282C28.358 39.6662 25.85 39.7102 25.542 38.9402C25.52 39.6442 25.542 40.3042 25.608 40.9642C25.652 41.4042 28.71 41.3382 28.71 41.0082C28.688 40.2822 28.688 39.8422 28.644 39.0282Z" fill="white" stroke="#474747" stroke-miterlimit="10"/>
<path d="M28.996 39.0722C29.304 39.5342 31.812 39.3802 31.834 38.9402C31.988 39.6882 31.966 39.9302 32.076 40.7442C32.23 40.9862 29.92 41.4042 29.084 41.0742C28.996 40.3702 29.018 39.8202 28.996 39.0722Z" fill="white" stroke="#474747" stroke-miterlimit="10"/>
<path d="M32.076 38.808C32.472 39.05 33.66 38.346 33.682 37.884C33.792 38.412 33.902 39.204 33.946 39.754C33.616 40.106 33.044 40.656 32.34 40.7C32.23 39.996 32.164 39.534 32.076 38.808Z" fill="white" stroke="#474747" stroke-miterlimit="10"/>
<path d="M25.96 28.7101C25.652 28.4901 25.014 27.6541 24.134 27.2361C23.738 30.3601 23.43 33.8581 23.188 37.6861C23.166 38.1041 25.19 38.4561 25.212 37.8841C25.41 34.0561 25.586 31.2621 25.96 28.7101Z" fill="white" stroke="#474747" stroke-miterlimit="10"/>
<path d="M27.7902 18.134C28.0851 18.134 28.3667 17.8308 28.2996 17.3071C28.2326 16.8111 27.9645 16.3839 27.7902 16.3425C27.6025 16.3977 27.3344 16.8248 27.2808 17.3071C27.2137 17.8308 27.4953 18.134 27.7902 18.134Z" fill="white" stroke="#474747" stroke-miterlimit="10"/>
<path d="M26.5166 19.4017C26.5166 19.0985 26.2217 18.8229 25.6988 18.8918C25.2028 18.9607 24.7872 19.2363 24.747 19.4017C24.8006 19.5946 25.2296 19.8564 25.6988 19.9115C26.2351 19.9804 26.5166 19.7048 26.5166 19.4017Z" fill="white" stroke="#474747" stroke-miterlimit="10"/>
<path d="M27.7902 20.6833C27.4953 20.6833 27.2137 20.9865 27.2808 21.5102C27.3478 22.0063 27.6159 22.4334 27.7902 22.4748C27.9779 22.4197 28.246 21.9925 28.2997 21.5102C28.3533 20.9727 28.0851 20.6833 27.7902 20.6833Z" fill="white" stroke="#474747" stroke-miterlimit="10"/>
<path d="M29.0504 19.4018C29.037 19.7049 29.2917 19.9806 29.7341 19.9116L29.828 18.8919C29.8146 18.8919 29.0906 18.699 29.0504 19.4018Z" fill="white" stroke="#474747" stroke-miterlimit="10"/>
<path d="M26.892 18.5061C27.1065 18.2994 27.0931 17.886 26.6641 17.5552C26.2753 17.2521 25.7793 17.1418 25.6318 17.2383C25.5246 17.4174 25.6586 17.8997 25.9536 18.2856C26.2887 18.699 26.6775 18.7128 26.892 18.5061Z" fill="white" stroke="#474747" stroke-miterlimit="10"/>
<path d="M26.892 20.3113C26.6775 20.1046 26.2753 20.1046 25.9536 20.5318C25.6452 20.9314 25.538 21.4275 25.6318 21.5791C25.8061 21.6756 26.2887 21.5515 26.6641 21.2622C27.0797 20.9177 27.1065 20.518 26.892 20.3113Z" fill="white" stroke="#474747" stroke-miterlimit="10"/>
<path d="M28.7287 20.3664C28.5544 20.6007 28.5276 20.9865 28.9566 21.3172C29.1845 21.4964 29.4526 21.6066 29.6537 21.648L29.6671 20.5869C29.6671 20.5869 29.1979 19.7325 28.7287 20.3664Z" fill="white" stroke="#474747" stroke-miterlimit="10"/>
<path d="M28.675 18.5061C28.8895 18.7128 29.2917 18.7128 29.6135 18.2856C29.9218 17.886 30.0291 17.3899 29.9352 17.2383C29.7609 17.1418 29.2783 17.2659 28.9029 17.5553C28.4873 17.886 28.4739 18.2856 28.675 18.5061Z" fill="white" stroke="#474747" stroke-miterlimit="10"/>
<path d="M26.6373 16.6044C26.8518 16.5079 27.0663 16.4804 27.1199 16.756C27.1735 17.0178 27.0663 17.3072 26.9456 17.3761C26.7981 17.4036 26.53 17.2796 26.3825 17.0591C26.2485 16.8111 26.4228 16.6871 26.6373 16.6044Z" fill="white" stroke="#474747" stroke-miterlimit="10"/>
<path d="M25.0151 20.5732C24.9213 20.3527 24.881 20.1322 25.1626 20.0771C25.4173 20.022 25.7122 20.1322 25.7793 20.2562C25.8195 20.4078 25.6854 20.6834 25.4709 20.8212C25.2296 20.959 25.0955 20.7799 25.0151 20.5732Z" fill="white" stroke="#474747" stroke-miterlimit="10"/>
<path d="M28.9566 22.2682C28.7421 22.3509 28.5276 22.3922 28.4739 22.1166C28.4203 21.8548 28.5276 21.5654 28.6482 21.4965C28.7957 21.4689 29.0638 21.5929 29.1979 21.8134C29.3453 22.0477 29.1711 22.1717 28.9566 22.2682Z" fill="white" stroke="#474747" stroke-miterlimit="10"/>
<path d="M25.0151 18.2442C25.1089 18.0238 25.2296 17.8446 25.4575 17.9962C25.672 18.1478 25.8061 18.4234 25.7659 18.5612C25.6854 18.699 25.4039 18.7954 25.1492 18.7403C24.881 18.6714 24.9213 18.4647 25.0151 18.2442Z" fill="white" stroke="#474747" stroke-miterlimit="10"/>
<path d="M26.6775 22.213C26.463 22.1165 26.2753 21.9925 26.4362 21.7582C26.5836 21.5378 26.8652 21.4137 26.9992 21.4413C27.1333 21.524 27.2272 21.8134 27.1735 22.0614C27.0931 22.337 26.892 22.2957 26.6775 22.213Z" fill="white" stroke="#474747" stroke-miterlimit="10"/>
<path d="M28.9298 16.6044C29.1443 16.6871 29.3319 16.8249 29.1711 17.0591C29.0236 17.2796 28.7421 17.4036 28.608 17.3761C28.4739 17.2934 28.3801 17.004 28.4337 16.756C28.5142 16.4804 28.7153 16.5079 28.9298 16.6044Z" fill="white" stroke="#474747" stroke-miterlimit="10"/>
<path d="M12.7526 25.3264C11.9654 25.9017 11.7838 25.493 12.4347 24.9026C13.0705 24.3273 13.4792 24.1003 14.4632 24.2214C15.9316 22.8589 17.6573 21.33 19.0197 19.8616C19.1711 19.6951 19.2014 19.3318 19.2317 19.1956C19.3376 19.3469 20.5184 19.68 20.6698 19.3923C20.7001 19.7254 21.9414 19.907 22.123 19.8162C21.9262 20.452 21.7597 20.7548 21.4267 21.3451C19.6858 22.753 16.3403 25.1599 15.6288 25.2962C15.2958 26.1439 15.0082 26.3861 14.7357 26.3558C14.1604 26.2953 13.6155 25.2205 12.7526 25.3264Z" fill="white" stroke="#474747" stroke-miterlimit="10"/>
<path d="M29.832 22.1322C29.898 26.3782 31.482 30.8662 34.936 31.0642C36.872 31.1742 39.93 28.2702 39.666 22.2422C39.424 16.5662 38.082 13.2442 34.782 13.0462C31.13 12.8262 29.502 18.1502 29.832 22.1322ZM34.738 14.1462C36.74 14.1462 38.368 17.6662 38.368 22.0002C38.368 26.3342 36.74 29.8542 34.738 29.8542C32.736 29.8542 31.108 26.3342 31.108 22.0002C31.108 17.6662 32.736 14.1462 34.738 14.1462Z" fill="#22B0FF" stroke="#474747" stroke-miterlimit="10"/>
<path d="M28.153 5.7832C29.8938 5.7832 30.1512 7.13048 29.9695 8.67456C29.7879 10.1278 29.2883 11.2329 28.1681 11.1875C27.1539 11.1572 26.5181 10.1127 26.3061 8.67456C26.0639 7.08507 26.5029 5.7832 28.153 5.7832Z" fill="white" stroke="#474747" stroke-width="0.1141" stroke-miterlimit="2.6131"/>
<path d="M28.5163 7.75103C28.7434 7.5391 28.9402 7.44827 29.031 7.37258C29.3337 7.17579 29.6062 7.32717 29.7122 7.40286C29.7273 7.49368 29.4397 7.43313 29.364 7.44827C29.0613 7.50882 28.8645 7.67534 28.5163 7.75103Z" fill="#004D77"/>
<path d="M27.3053 7.53926C27.502 7.63009 27.6837 7.78147 27.9411 7.69064C27.5929 7.41816 26.836 7.22137 26.5181 7.46357C26.9268 7.50899 26.9571 7.4333 27.3053 7.53926Z" fill="#004D77"/>
<path d="M28.7585 9.99162C28.6223 10.2338 28.0016 10.3247 27.7291 10.0068C27.8502 9.80997 28.0773 9.74942 28.2741 9.79483C28.5012 9.76455 28.6525 9.82511 28.7585 9.99162Z" fill="#004D77"/>
<path d="M27.9865 7.9328C27.9713 7.90253 27.9562 7.85711 27.9865 7.82684C28.0016 7.79656 28.0319 7.79656 28.0622 7.8117C28.0622 7.8117 28.0622 7.8117 28.0773 7.82684C28.1984 8.02363 28.0773 8.59888 28.0319 8.81081V8.84108C28.0167 8.90163 28.0167 8.96219 28.0167 9.0076C28.0167 9.05301 28.0319 9.08329 28.0622 9.11357C28.0773 9.14384 28.0924 9.18926 28.0773 9.21953C28.0622 9.24981 28.0319 9.26495 28.0016 9.23467C27.9562 9.17412 27.9259 9.09843 27.9108 9.02274C27.9108 8.94705 27.9108 8.87136 27.9259 8.79567V8.76539C27.9562 8.58374 28.0622 8.05391 27.9865 7.9328Z" fill="#004D77"/>
<path d="M28.3346 8.08408C28.3195 8.32629 28.3952 8.67447 28.4557 8.81071C28.4557 8.82585 28.4709 8.84098 28.4709 8.84098C28.4709 8.85612 28.4709 8.87126 28.4709 8.8864C28.4709 8.96209 28.4557 9.05292 28.4103 9.09833C28.3952 9.12861 28.3801 9.15888 28.3952 9.20429C28.4103 9.23457 28.4406 9.24971 28.4709 9.21943C28.5466 9.14374 28.5768 9.0075 28.5768 8.8864C28.5768 8.85612 28.5768 8.84098 28.5617 8.81071C28.5617 8.79557 28.5466 8.76529 28.5466 8.75016C28.5466 8.75016 28.5466 8.75016 28.5466 8.73502C28.5012 8.61391 28.4255 8.29602 28.4406 8.09922C28.4406 8.06895 28.4406 8.03867 28.4557 8.00839C28.4557 7.99326 28.4709 7.97812 28.4709 7.96298C28.5012 7.94784 28.5012 7.90243 28.486 7.87215C28.4709 7.84188 28.4406 7.82674 28.4103 7.84188C28.4103 7.84188 28.3952 7.84188 28.3952 7.85701C28.3649 7.88729 28.3498 7.91757 28.3346 7.96298V8.08408ZM28.4709 7.96298C28.486 7.96298 28.486 7.94784 28.4709 7.96298V7.96298ZM28.3346 8.08408C28.3346 8.03867 28.3498 7.99326 28.3498 7.94784L28.3346 8.08408Z" fill="#004D77"/>
<path d="M29.1824 8.20531C29.1218 8.20531 29.0764 8.19017 29.031 8.19017C29.0007 8.17503 28.9704 8.17503 28.9553 8.15989C28.925 8.14475 28.9099 8.12962 28.8796 8.11448C28.8039 8.06906 28.7434 8.00851 28.7282 7.93282C28.7434 7.91768 28.7434 7.90255 28.7585 7.88741C28.7736 7.87227 28.7888 7.85713 28.8039 7.84199C28.8947 7.7663 29.031 7.73603 29.1824 7.73603C29.1975 7.73603 29.2126 7.73603 29.2278 7.73603C29.2581 7.73603 29.2883 7.73603 29.3186 7.73603C29.3489 7.73603 29.3792 7.75117 29.4094 7.75117C29.5305 7.78144 29.6214 7.84199 29.6516 7.91768C29.6516 7.93282 29.6365 7.93282 29.6365 7.94796C29.6214 7.9631 29.6062 7.97824 29.5911 7.99337C29.4851 8.11448 29.3489 8.20531 29.1824 8.20531ZM29.0007 8.281C29.0613 8.29613 29.1218 8.31127 29.1824 8.31127C29.364 8.29613 29.5457 8.20531 29.6365 8.09934C29.6516 8.0842 29.6819 8.05393 29.6971 8.03879C29.7122 8.02365 29.7273 7.99337 29.7273 7.97824V7.94796C29.6819 7.82686 29.5608 7.73603 29.4094 7.70575C29.3792 7.69061 29.3489 7.69061 29.3186 7.69061C29.2883 7.69061 29.258 7.67548 29.2126 7.67548C29.1975 7.67548 29.1824 7.67548 29.1672 7.67548C28.9856 7.66034 28.8342 7.70575 28.7282 7.79658C28.7131 7.81172 28.6828 7.84199 28.6677 7.85713C28.6525 7.88741 28.6374 7.90255 28.6223 7.93282C28.6223 7.93282 28.6223 7.93282 28.6223 7.94796V7.97824C28.6374 8.06906 28.7131 8.15989 28.819 8.22044C28.8493 8.23558 28.8645 8.25072 28.8947 8.26586C28.9402 8.26586 28.9704 8.26586 29.0007 8.281Z" fill="#004D77"/>
<path d="M29.1369 7.70581C29.0007 7.70581 28.8796 7.82691 28.8796 7.96316C28.8796 8.0994 29.0007 8.2205 29.1369 8.2205C29.2732 8.2205 29.3943 8.0994 29.3943 7.96316C29.3943 7.81178 29.2883 7.70581 29.1369 7.70581Z" fill="#004D77"/>
<path d="M27.2296 8.20537C27.2901 8.20537 27.3355 8.19023 27.3961 8.19023C27.4264 8.19023 27.4566 8.17509 27.4718 8.15995C27.502 8.14481 27.5172 8.12968 27.5475 8.12968C27.6232 8.08426 27.6837 8.02371 27.6988 7.96316C27.6837 7.94802 27.6837 7.93288 27.6686 7.91774C27.6534 7.90261 27.6383 7.88747 27.6232 7.87233C27.5323 7.79664 27.3961 7.76636 27.2296 7.76636C27.2144 7.76636 27.1993 7.76636 27.1842 7.76636C27.1539 7.76636 27.1236 7.76636 27.0933 7.76636C27.063 7.76636 27.0328 7.7815 27.0025 7.7815C26.8814 7.81178 26.7906 7.87233 26.7451 7.94802C26.7451 7.96316 26.7603 7.96316 26.7603 7.9783C26.7754 7.99343 26.7906 8.00857 26.8057 8.02371C26.9117 8.11454 27.063 8.20537 27.2296 8.20537ZM27.4112 8.28106C27.3507 8.29619 27.2901 8.31133 27.2296 8.31133C27.0479 8.29619 26.8663 8.20537 26.7603 8.11454C26.7451 8.0994 26.7149 8.06912 26.6997 8.05399C26.6846 8.03885 26.6695 8.00857 26.6695 7.99343V7.96316C26.7149 7.84206 26.836 7.76637 26.9874 7.72095C27.0176 7.70581 27.0479 7.70581 27.0782 7.70581C27.1085 7.70581 27.1387 7.70581 27.1842 7.69067C27.1993 7.69067 27.2144 7.69067 27.2296 7.69067C27.4112 7.67554 27.5777 7.72095 27.6837 7.81178C27.6988 7.82692 27.7291 7.85719 27.7443 7.87233C27.7594 7.88747 27.7745 7.91775 27.7897 7.94802C27.7897 7.94802 27.7897 7.94802 27.7897 7.96316V7.99343C27.7745 8.08426 27.6988 8.17509 27.5929 8.23564C27.5626 8.25078 27.5323 8.26592 27.502 8.28106C27.4718 8.26592 27.4415 8.26592 27.4112 8.28106ZM27.2144 7.67554C27.2144 7.67554 27.2296 7.67554 27.2144 7.67554V7.67554Z" fill="#004D77"/>
<path d="M26.18 41.5142H28.204C28.182 44.5062 28.93 43.5382 28.864 46.3322C28.798 50.2922 29.414 50.1382 29.876 52.7342C28.446 52.9102 26.972 52.6022 25.608 52.0522C25.52 49.3462 26.928 46.7942 26.004 45.2102C25.256 43.8902 26.378 44.3082 26.18 41.5142Z" fill="#D3D3D3" stroke="#474747" stroke-miterlimit="10"/>
<path d="M32.45 52.2062C34.034 51.9202 39.27 48.6202 41.316 46.6842C38.918 41.1622 38.852 38.3902 38.126 29.2822C36.234 31.6802 34.43 31.5482 32.978 30.6242C32.978 30.6242 33.682 36.8502 34.144 39.5782C34.254 40.2602 32.472 41.0302 32.472 41.0302C32.516 44.0222 32.956 42.5922 32.45 52.2062Z" fill="#D3D3D3" stroke="#474747" stroke-miterlimit="10"/>
<path d="M34.496 12.848L35.948 11.462C33.022 2.26597 40.722 -1.51803 43.428 11.132C44.352 15.444 43.472 21.318 43.384 28.6C43.318 34.782 44.286 42.35 45.342 46.904L44.792 46.926C42.724 36.366 42.086 32.208 42.35 21.538C42.548 13.75 41.668 7.58997 38.632 5.74197C37.796 5.23597 37.092 8.22797 36.762 10.582C36.476 12.452 37.136 13.046 37.312 14.014C36.586 13.354 35.816 12.98 34.496 12.848Z" fill="white" stroke="#474747"/>
<path d="M28.93 19.382C28.93 19.998 28.446 20.504 27.852 20.504C27.258 20.504 26.774 19.998 26.774 19.382C26.774 18.766 27.258 18.26 27.852 18.26C28.446 18.26 28.93 18.766 28.93 19.382Z" fill="white" stroke="#474747" stroke-miterlimit="10"/>
<path d="M25.63 13.1121C25.872 13.2881 25.916 13.6621 25.762 13.9921C26.158 14.2341 28.402 15.3121 30.272 16.9401C30.866 15.2461 31.768 13.7721 33.286 13.0901C32.45 13.0901 31.218 13.2661 30.602 13.0461C30.338 13.7061 25.96 13.5521 25.63 13.1121Z" fill="#D3D3D3" stroke="#474747" stroke-miterlimit="10"/>
<path d="M20.086 16.3681C20.878 14.5421 21.978 13.0681 24.046 13.0461C23.452 13.3761 23.672 14.2121 24.464 14.3661C24.486 15.2901 24.376 16.3901 24.156 17.0721C23.98 16.8301 23.056 16.6101 22.748 17.0061C22.704 16.6101 21.604 16.4121 21.274 16.8521C21.098 16.4341 20.592 16.2581 20.086 16.3681Z" fill="#D3D3D3" stroke="#474747" stroke-miterlimit="10"/>
<path d="M23.452 17.1382L23.65 17.1822C23.936 17.2262 24.134 17.5122 24.09 17.8202L23.804 19.3822C23.76 19.6682 23.474 19.8662 23.188 19.8222L22.99 19.7782C22.704 19.7342 22.506 19.4482 22.55 19.1402L22.836 17.5782C22.88 17.2922 23.144 17.0942 23.452 17.1382Z" fill="white" stroke="#474747" stroke-miterlimit="10"/>
<path d="M21.934 16.962L22.154 17.006C22.44 17.072 22.616 17.358 22.55 17.644L22.198 19.118C22.132 19.404 21.846 19.58 21.56 19.536L21.34 19.492C21.054 19.426 20.878 19.14 20.944 18.854L21.296 17.38C21.362 17.072 21.648 16.896 21.934 16.962Z" fill="white" stroke="#474747" stroke-miterlimit="10"/>
<path d="M20.504 16.6761L20.636 16.7201C20.922 16.7861 21.098 17.0941 21.01 17.3801L20.636 18.8321C20.57 19.1181 20.262 19.2941 19.976 19.2061L19.844 19.1621C19.558 19.0961 19.382 18.7881 19.47 18.5021L19.844 17.0501C19.91 16.7641 20.218 16.5881 20.504 16.6761Z" fill="white" stroke="#474747" stroke-miterlimit="10"/>
<path d="M13.046 25.564C13.068 25.74 12.826 26.07 12.54 26.312C12.232 26.554 11.99 26.598 11.968 26.444C11.946 26.268 12.188 25.938 12.474 25.696C12.782 25.454 13.024 25.388 13.046 25.564Z" fill="white" stroke="#474747" stroke-miterlimit="10"/>
<path d="M13.596 25.8281C13.618 26.0041 13.354 26.4221 13.002 26.7521C12.65 27.0821 12.32 27.1921 12.298 27.0161C12.276 26.8401 12.54 26.4221 12.892 26.0921C13.244 25.7621 13.574 25.6521 13.596 25.8281Z" fill="white" stroke="#474747" stroke-miterlimit="10"/>
<path d="M13.926 26.4002C13.948 26.5762 13.728 26.9282 13.42 27.1922C13.112 27.4562 12.848 27.5222 12.826 27.3462C12.804 27.1702 13.024 26.8182 13.332 26.5542C13.64 26.3122 13.904 26.2242 13.926 26.4002Z" fill="white" stroke="#474747" stroke-miterlimit="10"/>
<path d="M14.498 26.774C14.52 26.928 14.3 27.28 13.992 27.522C13.684 27.764 13.442 27.852 13.42 27.676C13.398 27.522 13.618 27.17 13.926 26.928C14.212 26.664 14.476 26.598 14.498 26.774Z" fill="white" stroke="#474747" stroke-miterlimit="10"/>
<path d="M22.088 11.484L23.254 12.87C21.846 13.222 20.13 13.904 18.876 19.624C17.688 20.9 16.698 21.868 15.576 22.858C14.762 23.518 14.3 24.002 13.31 23.914C12.21 24.662 11.352 25.322 11.55 26.158L10.78 26.466L9.68 24.596L10.802 23.782C9.988 23.188 9.548 21.802 9.526 20.768C7.92 19.184 7.568 18.37 7.304 16.192C5.874 15.07 5.126 12.606 5.082 9.636C7.018 11 8.558 12.782 8.932 15.136C10.274 16.28 11.022 17.094 11.352 19.668C12.298 20.306 12.562 21.12 12.782 22.418L13.112 22.176C9.152 -0.989999 25.476 -3.542 22.088 11.484Z" fill="#22B0FF" stroke="#474747"/>
<path d="M17.644 16.1921C17.512 17.8641 17.556 20.9661 17.556 20.9661C18.106 20.3721 18.48 20.0861 18.876 19.6241C18.942 19.3381 19.008 19.0521 19.096 18.6561C19.074 17.8201 19.074 16.9401 19.008 16.3461L18.546 16.2801C18.48 17.5561 18.722 19.0301 18.348 18.9201C18.04 18.8101 18.128 16.2361 18.128 16.2361C18.128 16.2361 17.776 16.1921 17.644 16.1921Z" fill="white" stroke="#474747" stroke-linejoin="round"/>
<path d="M16.61 13.3761C17.402 13.4641 17.644 11.9021 18.722 7.98613L18.414 7.37013C17.248 10.2301 17.028 11.8581 16.808 11.3081C16.61 10.8461 17.754 8.22813 18.084 6.93013L17.82 6.38013C16.786 7.52413 14.718 13.1561 16.61 13.3761Z" fill="white" stroke="#474747" stroke-linejoin="round"/>
<path d="M18.546 15.6421C19.382 15.8841 20.174 12.4961 20.174 10.9121L19.69 9.68011C19.448 11.9241 19.184 13.7281 18.854 13.5961C18.436 13.4201 19.162 11.5281 19.382 9.17411L19.096 8.55811C17.952 13.7941 17.072 15.2241 18.546 15.6421Z" fill="white" stroke="#474747" stroke-linejoin="round"/>
<path d="M10.8679 26.0985L10.0353 24.6906L13.8046 22.0264L14.5313 23.2677C13.7895 23.8581 13.9258 23.6764 13.2445 23.5704C12.8812 23.8429 11.1404 24.7361 11.2917 25.9622L10.8679 26.0985Z" fill="#22B0FF" stroke="#474747" stroke-width="1.4533"/>
<path d="M25.652 13.596C25.652 13.948 25.278 14.212 24.794 14.212C24.332 14.212 23.936 13.926 23.936 13.596C23.936 13.244 24.31 12.98 24.794 12.98C25.278 12.98 25.652 13.244 25.652 13.596Z" fill="#22B0FF" stroke="#474747" stroke-miterlimit="10"/>
<path d="M22.594 13.0242L21.274 11.8582C24.024 -1.56178 10.692 -0.0657768 13.64 21.6922L13.794 21.5822L14.784 23.2982C14.3 10.7582 16.588 5.94022 18.348 5.65422C19.096 5.52222 20.46 10.0762 20.526 10.8242C20.768 13.5742 19.536 14.3882 19.58 17.0282C20.152 15.3782 20.702 13.9482 22.594 13.0242Z" fill="white" stroke="#474747"/>
<path d="M15.708 13.6182C15.378 17.3802 15.048 18.8542 16.104 19.0082C17.072 19.1402 16.852 18.3482 17.094 14.0362L16.632 13.8822C16.39 16.0162 16.39 17.0502 16.06 16.9402C15.796 16.8522 16.148 14.8722 16.17 13.7942L15.708 13.6182Z" fill="white" stroke="#474747" stroke-linejoin="round"/>
<path d="M15.312 19.4041C15.268 20.4821 15.202 21.6921 15.246 23.1001C16.06 22.3961 16.324 22.1541 16.984 21.5161C16.984 20.7461 16.984 20.3941 16.896 19.6021L16.368 19.5581C16.324 20.2841 16.522 22.1101 16.126 22.1981C15.84 22.2641 15.906 21.3841 15.84 19.4921L15.312 19.4041Z" fill="white" stroke="#474747" stroke-linejoin="round"/>
<path d="M13.486 28.006C13.838 27.984 14.124 28.094 14.85 26.796C15.356 26.51 15.62 26.136 15.73 25.586C16.676 25.014 17.204 24.86 18.656 23.76C18.26 31.68 17.908 37.136 17.776 38.39C17.93 40.678 18.7 43.12 18.7 43.12L16.412 48.334C16.236 48.158 16.06 47.982 15.884 47.652C15.026 49.236 14.102 50.842 11.902 51.656L12.496 47.366C12.078 47.344 11.77 47.454 11.462 47.564C13.354 40.26 13.706 34.078 13.486 28.006Z" fill="#22B0FF" stroke="#474747"/>
<path d="M15.752 26.3562C15.51 33.0442 15.158 32.9122 16.082 33.0002C17.182 33.0882 16.764 32.0102 17.182 25.3882L16.676 25.7402C16.412 28.8202 16.61 29.4582 16.28 29.5902C15.994 29.7222 16.148 28.7542 16.214 25.9822L15.752 26.3562Z" fill="white" stroke="#474747"/>
<path d="M15.884 36.652C16.148 36.63 16.082 35.86 16.192 33.836L16.698 33.858C16.544 38.192 16.39 40.172 15.554 40.062C14.63 39.952 15.136 37.378 15.422 33.77L15.862 33.814C15.664 36.014 15.598 36.674 15.884 36.652Z" fill="white" stroke="#474747"/>
<path d="M17.182 43.6261C17.424 43.4281 17.864 40.6121 17.864 40.6121L18.128 41.8441C17.556 44.8581 16.764 47.2341 16.192 46.7941C15.818 46.5081 16.412 44.5941 17.226 38.4121L17.6 38.6101C17.578 40.1061 16.676 43.9781 17.182 43.6261Z" fill="white" stroke="#474747"/>
<path d="M14.366 46.178C14.652 46.332 15.268 43.296 15.686 40.942L16.126 41.008C15.796 43.912 14.982 48.29 13.574 49.918C12.65 50.974 13.42 45.496 14.784 40.832L15.268 40.898C14.586 44.242 14.036 45.98 14.366 46.178Z" fill="white" stroke="#474747"/>
<path d="M14.014 28.886C14.3 29.106 14.63 29.238 14.85 29.172C14.366 35.442 14.366 40.59 12.606 46.86L11.968 46.904C13.354 41.492 13.926 36.014 14.014 28.886Z" fill="white" stroke="#474747"/>
<path d="M17.864 34.5401C17.512 34.4741 17.644 34.1001 17.732 31.6142L17.402 31.5042C17.094 37.0261 17.094 37.7961 17.6 37.8621C17.666 37.8841 17.82 35.2001 17.864 34.5401Z" fill="white" stroke="#474747"/>
<path d="M18.216 28.072C17.864 28.072 18.018 26.796 18.084 24.75L17.71 25.014C17.49 29.942 17.292 30.822 17.952 30.866C18.106 30.888 18.084 30.514 18.216 28.072Z" fill="white" stroke="#474747"/>
<path d="M13.816 28.336C14.916 27.764 14.542 27.522 15.048 27.104C15.224 28.644 15.246 29.524 13.816 28.336Z" fill="#22B0FF" stroke="#474747"/>
<path d="M40.656 14.1241L40.084 14.3441C40.15 17.2041 40.15 19.2941 41.052 19.2281C42.064 19.1621 41.844 18.6121 41.558 13.8601L41.074 13.9921C41.096 15.1361 41.272 16.9401 40.942 16.8961C40.722 16.8961 40.722 15.2681 40.656 14.1241Z" fill="white" stroke="#474747"/>
<path d="M33.748 14.6301C32.736 15.1801 31.548 17.4681 31.328 20.6141L33.99 20.8781L33.748 14.6301Z" fill="white" stroke="#474747" stroke-width="0.6881"/>
<path d="M35.728 14.5862L35.442 20.9002L38.17 20.6582C37.906 17.4022 36.872 15.4882 35.728 14.5862Z" fill="white" stroke="#474747" stroke-width="0.6881"/>
<path d="M35.442 22.2642L35.662 29.4362C37.114 28.5122 38.148 25.8942 38.214 22.4842L35.442 22.2642Z" fill="white" stroke="#474747" stroke-width="0.6881"/>
<path d="M31.262 22.5062C31.438 25.9162 32.34 28.2922 33.704 29.3262L33.99 22.2642L31.262 22.5062Z" fill="white" stroke="#474747" stroke-width="0.6881"/>
<path d="M31.284 20.7681L34.078 21.0101L33.858 14.5641C34.32 14.1901 35.046 14.1901 35.596 14.5201L35.354 21.0101L38.236 20.7901C38.258 21.2301 38.28 21.9781 38.236 22.3301L35.354 22.1541L35.574 29.5021C35.002 29.9201 34.144 29.7001 33.814 29.4141L34.1 22.1541L31.262 22.3961C31.262 20.8561 31.284 21.0321 31.284 20.7681Z" fill="#22B0FF" stroke="#474747" stroke-width="0.6881"/>
<path d="M26.818 10.78C27.654 11.748 28.82 11.704 29.48 10.78C29.546 11.814 29.656 12.386 30.448 12.936C29.656 13.398 26.334 13.332 25.52 12.936C26.334 12.826 26.774 12.32 26.818 10.78Z" fill="white" stroke="#474747" stroke-miterlimit="10"/>
<path d="M25.322 7.81016C25.696 3.43215 30.602 3.60815 31.02 7.70016L30.36 7.72216C30.536 4.59816 25.718 4.57616 25.982 7.78816L25.322 7.81016Z" fill="#22B0FF" stroke="#474747" stroke-miterlimit="10"/>
<path d="M21.296 37.5542C21.67 38.0602 22.044 38.3902 22.814 38.4342C22.88 38.3022 22.836 38.2142 22.814 38.0822C21.912 38.0602 21.692 37.7522 21.296 37.5542Z" fill="white" stroke="#474747" stroke-miterlimit="10"/>
<path d="M33.572 37.7961C33.198 38.3021 32.868 38.5441 32.076 38.5881C32.032 38.5001 32.01 38.3901 32.01 38.2581C32.912 38.2581 33.154 38.0161 33.572 37.7961Z" fill="white" stroke="#474747" stroke-miterlimit="10"/>
<path d="M23.166 38.082C23.716 38.456 24.508 38.654 25.234 38.302C25.234 38.456 25.256 38.544 25.212 38.676C24.684 38.94 23.694 38.874 23.144 38.456C23.144 38.28 23.166 38.192 23.166 38.082Z" fill="white" stroke="#474747" stroke-miterlimit="10"/>
<path d="M25.564 38.3901C26.114 38.8961 27.808 38.7641 28.644 38.4121C28.666 38.5441 28.71 38.6541 28.644 38.7861C27.874 39.3361 26.158 39.3801 25.564 38.6981C25.498 38.4781 25.542 38.4781 25.564 38.3901Z" fill="white" stroke="#474747" stroke-miterlimit="10"/>
<path d="M29.018 38.4562C29.81 38.7862 31.086 38.7202 31.68 38.3242C31.746 38.4122 31.812 38.5002 31.746 38.7202C31.108 39.1382 29.942 39.2922 29.062 38.8302C28.996 38.7202 28.974 38.5882 29.018 38.4562Z" fill="white" stroke="#474747" stroke-miterlimit="10"/>
<path d="M27.236 7.72217C27.104 7.72217 26.972 7.83217 26.972 7.98617C26.972 8.11817 27.082 8.25017 27.236 8.25017C27.368 8.25017 27.5 8.14017 27.5 7.98617C27.5 7.83217 27.39 7.72217 27.236 7.72217Z" fill="#004D77"/>
<path d="M41.602 36.7621C41.338 36.7401 41.404 35.9701 41.294 33.9461L40.788 33.9681C40.942 38.3021 41.074 40.1061 41.91 40.0181C42.834 39.9081 42.35 37.4881 42.086 33.8801L41.646 33.9241C41.822 36.1021 41.888 36.7841 41.602 36.7621Z" fill="white" stroke="#474747"/>
<path d="M42.988 45.98C42.702 46.134 42.086 43.098 41.668 40.744L41.228 40.81C41.558 43.714 42.372 48.092 43.78 49.72C44.704 50.7761 43.934 45.298 42.57 40.634L42.086 40.7C42.768 44.044 43.318 45.804 42.988 45.98Z" fill="white" stroke="#474747"/>
<path d="M39.6 16.2581C39.732 17.9301 39.688 21.0321 39.688 21.0321C39.644 20.4601 39.402 18.2601 39.116 17.2041C39.116 16.7641 39.094 16.3021 39.094 16.3021C39.094 16.3021 39.446 16.2581 39.6 16.2581Z" fill="white" stroke="#474747" stroke-linejoin="round"/>
<path d="M7.26 12.1221C9.02 13.6621 8.558 17.4021 9.152 15.7081C11.946 17.9521 10.494 21.6481 11.484 20.0861C12.1 20.6361 12.474 21.6701 12.518 22.6161L11.176 23.5621C10.186 22.8801 9.856 20.9661 9.724 19.5801C9.68 20.8341 7.678 19.0081 7.59 15.4001C6.776 15.6421 6.05 13.8381 5.94 13.2001C7.282 14.2121 5.236 12.1661 5.412 10.1641C5.412 10.1861 6.71 11.6601 7.26 12.1221Z" fill="#22B0FF" stroke="#474747"/>
</g>
<defs>
<clipPath id="clip0">
<rect width="55" height="72.534" fill="white"/>
</clipPath>
</defs>
</svg>
