<svg width="19" height="18" viewBox="0 0 19 18" fill="none" xmlns="http://www.w3.org/2000/svg">
<path d="M9.27066 5.4C10.252 5.4 11.1931 5.77928 11.8871 6.45442C12.581 7.12955 12.9708 8.04522 12.9708 9C12.9708 9.95478 12.581 10.8705 11.8871 11.5456C11.1931 12.2207 10.252 12.6 9.27066 12.6C8.28932 12.6 7.34817 12.2207 6.65426 11.5456C5.96034 10.8705 5.57051 9.95478 5.57051 9C5.57051 8.04522 5.96034 7.12955 6.65426 6.45442C7.34817 5.77928 8.28932 5.4 9.27066 5.4ZM9.27066 7.2C8.77999 7.2 8.30942 7.38964 7.96246 7.72721C7.6155 8.06477 7.42058 8.52261 7.42058 9C7.42058 9.47739 7.6155 9.93523 7.96246 10.2728C8.30942 10.6104 8.77999 10.8 9.27066 10.8C9.76133 10.8 10.2319 10.6104 10.5789 10.2728C10.9258 9.93523 11.1207 9.47739 11.1207 9C11.1207 8.52261 10.9258 8.06477 10.5789 7.72721C10.2319 7.38964 9.76133 7.2 9.27066 7.2ZM7.42058 18C7.18932 18 6.99507 17.838 6.95807 17.622L6.6158 15.237C6.03303 15.012 5.53351 14.706 5.05249 14.346L2.74914 15.255C2.54563 15.327 2.29588 15.255 2.18487 15.057L0.334795 11.943C0.21454 11.745 0.270042 11.502 0.445799 11.367L2.39763 9.873L2.33288 9L2.39763 8.1L0.445799 6.633C0.270042 6.498 0.21454 6.255 0.334795 6.057L2.18487 2.943C2.29588 2.745 2.54563 2.664 2.74914 2.745L5.05249 3.645C5.53351 3.294 6.03303 2.988 6.6158 2.763L6.95807 0.378C6.99507 0.162 7.18932 0 7.42058 0H11.1207C11.352 0 11.5463 0.162 11.5833 0.378L11.9255 2.763C12.5083 2.988 13.0078 3.294 13.4888 3.645L15.7922 2.745C15.9957 2.664 16.2454 2.745 16.3564 2.943L18.2065 6.057C18.3268 6.255 18.2713 6.498 18.0955 6.633L16.1437 8.1L16.2084 9L16.1437 9.9L18.0955 11.367C18.2713 11.502 18.3268 11.745 18.2065 11.943L16.3564 15.057C16.2454 15.255 15.9957 15.336 15.7922 15.255L13.4888 14.355C13.0078 14.706 12.5083 15.012 11.9255 15.237L11.5833 17.622C11.5463 17.838 11.352 18 11.1207 18H7.42058ZM8.57688 1.8L8.23462 4.149C7.12457 4.374 6.14403 4.95 5.43175 5.751L3.20241 4.815L2.50863 5.985L4.46046 7.38C4.09045 8.433 4.09045 9.576 4.46046 10.62L2.49938 12.024L3.19316 13.194L5.441 12.258C6.15328 13.05 7.12457 13.626 8.22537 13.842L8.56763 16.2H9.97369L10.316 13.851C11.4167 13.626 12.388 13.05 13.1003 12.258L15.3482 13.194L16.0419 12.024L14.0809 10.629C14.4509 9.576 14.4509 8.433 14.0809 7.38L16.0327 5.985L15.3389 4.815L13.1096 5.751C12.3973 4.95 11.4167 4.374 10.3067 4.158L9.96444 1.8H8.57688Z" fill="white" fill-opacity="0.87"/>
</svg>
