<svg width="36" height="36" viewBox="0 0 36 36" fill="none" xmlns="http://www.w3.org/2000/svg">
<g clip-path="url(#clip0)">
<path d="M18 0C8.05898 0 0 8.05898 0 18C0 27.941 8.05898 36 18 36C18.5423 36 19.0825 35.9757 19.6201 35.9273C20.1199 35.8825 20.6153 35.814 21.1069 35.7281L21.2959 35.6947C30.4356 33.9891 36.7729 25.6034 35.918 16.345C35.0631 7.08662 27.2977 0.00292969 18 0V0ZM16.5539 34.7364H16.5114C16.0447 34.6951 15.5815 34.6327 15.1225 34.5527C15.0961 34.548 15.0697 34.5451 15.0439 34.5401C14.5951 34.4599 14.151 34.3603 13.7112 34.2439L13.6049 34.2167C13.176 34.1004 12.7518 33.9653 12.3337 33.8153C12.2903 33.7998 12.2467 33.786 12.2033 33.7699C11.7935 33.6193 11.3909 33.4506 10.9945 33.2681C10.9453 33.2461 10.8961 33.225 10.8469 33.2016C10.4581 33.0217 10.077 32.8189 9.70312 32.6057C9.65039 32.5758 9.59707 32.5459 9.54434 32.5163C9.17637 32.3016 8.81689 32.0713 8.46416 31.8281C8.41084 31.7909 8.35693 31.7549 8.30391 31.7177C7.95732 31.4719 7.61953 31.2108 7.29053 30.9378L7.2 30.8587V25.8C7.20439 22.1566 10.1566 19.2044 13.8 19.2H22.2C25.8434 19.2044 28.7956 22.1566 28.8 25.8V30.8593L28.7203 30.9258C28.3849 31.2059 28.0406 31.4707 27.687 31.7209C27.6401 31.7537 27.5927 31.7851 27.5461 31.8173C27.1893 32.0651 26.8236 32.2983 26.4492 32.5175C26.4023 32.5447 26.3543 32.5705 26.3077 32.5975C25.9283 32.8134 25.5425 33.0173 25.149 33.201C25.1039 33.2221 25.0585 33.2417 25.0128 33.261C24.6132 33.4453 24.2071 33.6149 23.7943 33.7667C23.7533 33.7819 23.712 33.7951 23.6742 33.8095C23.2541 33.9601 22.8281 34.0963 22.3969 34.2132L22.2935 34.239C21.8531 34.3553 21.4087 34.4555 20.9593 34.536C20.9335 34.5407 20.9077 34.5439 20.8819 34.548C20.4223 34.6283 19.9585 34.6907 19.4915 34.7323H19.449C18.9691 34.7736 18.489 34.7959 18.0029 34.7959C17.5169 34.7959 17.0329 34.7777 16.5539 34.7364ZM30 29.7469V25.8C29.995 21.4942 26.5058 18.005 22.2 18H13.8C9.49424 18.005 6.00498 21.4942 6 25.8V29.7463C-0.462305 23.1507 -0.390234 12.576 6.16113 6.06885C12.7125 -0.437988 23.2875 -0.437988 29.8389 6.06885C36.3902 12.576 36.4623 23.1507 30 29.7463V29.7469Z" fill="white" fill-opacity="0.87"/>
<path d="M18 4.79993C14.6862 4.79993 12 7.48616 12 10.7999C12 14.1137 14.6862 16.7999 18 16.7999C21.3138 16.7999 24 14.1137 24 10.7999C23.9965 7.48762 21.3123 4.80344 18 4.79993ZM18 15.5999C15.3489 15.5999 13.2 13.451 13.2 10.7999C13.2 8.14885 15.3489 5.99993 18 5.99993C20.6511 5.99993 22.8 8.14885 22.8 10.7999C22.7971 13.4495 20.6496 15.597 18 15.5999Z" fill="white" fill-opacity="0.87"/>
</g>
<defs>
<clipPath id="clip0">
<rect width="36" height="36" fill="white"/>
</clipPath>
</defs>
</svg>
