<svg width="24" height="26" viewBox="0 0 24 26" fill="none" xmlns="http://www.w3.org/2000/svg">
<path d="M23.946 18.4198C23.7796 17.6925 23.2709 17.1513 22.6487 17.0394V6.10732H23.4433C23.6628 6.10732 23.8407 5.89405 23.8407 5.63101V0.867912C23.8407 0.604639 23.6628 0.391602 23.4433 0.391602H5.96017C5.74074 0.391602 5.56283 0.604639 5.56283 0.867912V5.63101C5.56283 5.89405 5.74074 6.10732 5.96017 6.10732H6.75486V15.6335H6.35752C5.37134 15.6307 4.40533 15.9696 3.5761 16.6094V14.2046C3.5761 13.9413 3.39819 13.7283 3.17876 13.7283H0.397345C0.177913 13.7283 0 13.9413 0 14.2046V25.1597C0 25.4228 0.177913 25.636 0.397345 25.636H3.17876C3.39819 25.636 3.5761 25.4228 3.5761 25.1597V22.7552C4.40552 23.3945 5.37134 23.7334 6.35752 23.7308H12.8819C13.3339 23.7299 13.7839 23.6587 14.2206 23.5192L22.8235 20.7567C23.67 20.4801 24.1715 19.4363 23.946 18.4198ZM6.35752 1.34422H23.046V5.1547H6.35752V1.34422ZM7.54955 6.10732H21.854V17.1213L17.2424 18.6037C17.0525 18.0609 16.665 17.6532 16.1914 17.4976L10.8375 15.7763C10.536 15.6812 10.2256 15.6331 9.91383 15.6335H7.54955V6.10732ZM2.78141 24.6834H0.79469V14.6809H2.78141V24.6834ZM22.6172 19.8364L14.0159 22.5989C13.6459 22.7173 13.2649 22.7775 12.8819 22.7782H6.35752C5.4115 22.7807 4.4905 22.4128 3.735 21.7302L3.5761 21.5874V17.7769L3.735 17.6339C4.4905 16.9513 5.4115 16.5831 6.35752 16.5862H9.91383C10.1565 16.5859 10.3985 16.6236 10.6334 16.698L15.9856 18.4179C16.3018 18.5223 16.5333 18.8472 16.5694 19.2382C16.5736 19.2577 16.5789 19.277 16.5853 19.2959C16.5806 19.3163 16.5771 19.337 16.5748 19.3582C16.5752 19.4356 16.5665 19.5129 16.5486 19.5873C16.4551 20.0024 16.1414 20.291 15.7826 20.2917C15.7126 20.2924 15.6431 20.2817 15.5756 20.2603L12.1982 19.1747C12.0597 19.1254 11.9097 19.17 11.8065 19.2914C11.7034 19.4128 11.6633 19.5917 11.7019 19.7587C11.7405 19.9254 11.8517 20.0543 11.9923 20.0945L15.3698 21.1806C15.5046 21.2232 15.6437 21.2446 15.7834 21.2444C16.4978 21.2439 17.1239 20.6711 17.3126 19.845C17.3348 19.7494 17.3497 19.6517 17.3576 19.5531L22.2016 17.996C22.2362 17.9855 22.2736 17.9748 22.3089 17.9679C22.7045 17.9067 23.0765 18.2065 23.1787 18.6684C23.1966 18.7488 23.2055 18.8319 23.2049 18.9151C23.2055 19.3463 22.9645 19.724 22.6172 19.8364Z" fill="white" fill-opacity="0.7"/>
<path d="M12.715 8.01257H16.6885C16.9079 8.01257 17.0858 7.7993 17.0858 7.53626C17.0858 7.27298 16.9079 7.05995 16.6885 7.05995H12.715C12.4956 7.05995 12.3177 7.27298 12.3177 7.53626C12.3177 7.7993 12.4956 8.01257 12.715 8.01257Z" fill="white" fill-opacity="0.7"/>
</svg>
