<svg width="24" height="26" viewBox="0 0 24 26" fill="none" xmlns="http://www.w3.org/2000/svg">
<path d="M24 13.6961V10.429C24 9.52306 23.4456 8.73934 22.6208 8.47909L20.129 7.69279V7.07428C20.8301 6.55856 21.2903 5.70466 21.2903 4.73883V3.51693C21.2903 1.94531 20.0748 0.666748 18.5806 0.666748C17.0865 0.666748 15.871 1.94531 15.871 3.51693V4.73843C15.871 5.70466 16.3312 6.55856 17.0323 7.07389V7.69239L14.8363 8.38545C14.0122 7.61028 12.9623 7.18144 11.8475 7.18144C10.7372 7.18144 9.72146 7.60929 8.93649 8.31428L6.96774 7.69279V7.07428C7.66879 6.55856 8.12903 5.70466 8.12903 4.73883V3.51693C8.12903 1.94531 6.9135 0.666748 5.41935 0.666748C3.92521 0.666748 2.70968 1.94531 2.70968 3.51693V4.73843C2.70968 5.70466 3.16992 6.55856 3.87097 7.07389V7.69239L1.37922 8.4787C0.554372 8.73934 0 9.52306 0 10.429V13.6961H0.774194V10.429C0.774194 9.8855 1.10667 9.4151 1.60188 9.25924L4.09438 8.47253C4.31968 8.7803 4.75554 9.21729 5.41935 9.21729C6.08317 9.21729 6.51903 8.7803 6.74433 8.47253L8.33184 8.97334C7.82794 9.63996 7.49225 10.4513 7.39037 11.339C6.89611 10.7865 6.19619 10.4388 5.41935 10.4388C3.92521 10.4388 2.70968 11.7174 2.70968 13.289V14.5105C2.70968 15.4767 3.16992 16.3306 3.87097 16.8459V17.4644L1.37922 18.2507C0.554372 18.5114 0 19.2951 0 20.2011V23.8753H4.64516C4.85837 23.8753 5.03226 24.0583 5.03226 24.2825V25.9112H18.9677V24.2825C18.9677 24.0583 19.1416 23.8753 19.3548 23.8753H24V20.2011C24 19.2951 23.4456 18.5114 22.6208 18.2511L20.129 17.4648V16.8463C20.8301 16.3306 21.2903 15.4767 21.2903 14.5109V13.2894C21.2903 11.7178 20.0748 10.4392 18.5806 10.4392C17.8227 10.4392 17.1375 10.769 16.6452 11.2983V10.9124C16.6452 10.1082 16.2297 9.38429 15.5814 9.00157L17.2557 8.47293C17.481 8.7803 17.9168 9.21729 18.5806 9.21729C19.2445 9.21729 19.6803 8.7803 19.9056 8.47253L22.3985 9.25924C22.8933 9.4151 23.2258 9.8855 23.2258 10.429V13.6961H24ZM5.41935 1.48108C6.48652 1.48108 7.35484 2.39443 7.35484 3.51693H5.57964C5.33373 3.51693 5.09255 3.41195 4.91885 3.22905L4.64516 2.94117L4.37147 3.22905C4.19777 3.41195 3.95659 3.51693 3.71069 3.51693H3.48387C3.48387 2.39443 4.35219 1.48108 5.41935 1.48108ZM3.48387 4.73843V4.33126H3.71069C4.04788 4.33126 4.36996 4.22947 4.64516 4.03941C4.92036 4.22947 5.24244 4.33126 5.57964 4.33126H7.35484V4.73843C7.35484 5.86093 6.48652 6.77427 5.41935 6.77427C4.35219 6.77427 3.48387 5.86093 3.48387 4.73843ZM5.41935 8.40295C5.00788 8.40295 4.74118 8.03932 4.64516 7.88385V7.46893C4.8905 7.54587 5.15039 7.58861 5.41935 7.58861C5.68832 7.58861 5.94821 7.54587 6.19355 7.46853V7.88345C6.09753 8.03972 5.83083 8.40295 5.41935 8.40295ZM16.0598 15.5495C16.2569 16.0761 16.5972 16.5264 17.0323 16.8463V17.4648L14.5409 18.2511C14.4589 18.2768 14.3791 18.3102 14.3012 18.3472L13.9355 18.2585V17.4563C14.3492 17.1066 14.6753 16.6473 14.8754 16.1209C15.3213 16.0797 15.7394 15.8801 16.0598 15.5495ZM12 18.175C12.4107 18.175 12.8025 18.0887 13.1613 17.9352V18.3786L12 19.2947L10.8387 18.3786V17.9352C11.1975 18.0887 11.5893 18.175 12 18.175ZM10.3633 19.0215L11.3071 19.7663L10.3363 20.379L10.0908 19.0879L10.3633 19.0215ZM11.5723 22.2467H12.4277L12.7288 25.0969H11.2712L11.5723 22.2467ZM12.495 21.4323H11.5046L11.2823 20.7311L12 20.2784L12.7173 20.7311L12.495 21.4323ZM12.6929 19.7663L13.6367 19.0215L13.9092 19.0875L13.6637 20.3786L12.6929 19.7663ZM15.5691 14.925C15.4351 15.0797 15.2648 15.188 15.0801 15.254C15.0909 15.1433 15.0968 15.0312 15.0968 14.9176V12.9693C15.5134 13.1355 15.8233 13.521 15.8651 13.9816C15.8969 14.3321 15.792 14.6667 15.5691 14.925ZM14.3226 14.9176C14.3226 16.265 13.2809 17.3607 12 17.3607C10.7191 17.3607 9.67742 16.265 9.67742 14.9176V12.8818H10.9916C11.8352 12.8818 12.6561 12.6603 13.39 12.2373L13.6962 12.8818H14.3226V14.9176ZM8.91986 15.254C8.73519 15.188 8.56489 15.0797 8.43088 14.925C8.20804 14.6671 8.10314 14.3321 8.13489 13.982C8.17666 13.5214 8.48664 13.1355 8.90323 12.9697V14.9176C8.90323 15.0312 8.90909 15.1433 8.91986 15.254ZM9.12456 16.1209C9.32434 16.6473 9.65039 17.1066 10.0645 17.4563V18.2585L9.69878 18.3472C9.62053 18.3102 9.54114 18.2772 9.45949 18.2511L6.96774 17.4648V16.8463C7.40247 16.5264 7.74307 16.0761 7.94021 15.5495C8.26058 15.8801 8.67868 16.0797 9.12456 16.1209ZM5.41935 11.2531C6.48652 11.2531 7.35484 12.1665 7.35484 13.289H7.12802C6.88212 13.289 6.64094 13.184 6.46724 13.0011L6.19355 12.7132L5.91986 13.0011C5.74616 13.184 5.50498 13.289 5.25907 13.289H3.48387C3.48387 12.1665 4.35219 11.2531 5.41935 11.2531ZM3.48387 14.5105V14.1033H5.25907C5.59627 14.1033 5.91835 14.0015 6.19355 13.8115C6.46875 14.0015 6.79083 14.1033 7.12802 14.1033H7.35484V14.5105C7.35484 15.633 6.48652 16.5463 5.41935 16.5463C4.35219 16.5463 3.48387 15.633 3.48387 14.5105ZM5.41935 17.3607C5.68832 17.3607 5.94821 17.3179 6.19355 17.2406V17.6555C6.09753 17.8118 5.83083 18.175 5.41935 18.175C5.00788 18.175 4.74118 17.8114 4.64516 17.6559V17.241C4.8905 17.3179 5.15039 17.3607 5.41935 17.3607ZM4.64516 23.061H3.09677V20.2108H2.32258V23.061H0.774194V20.2011C0.774194 19.6575 1.10667 19.1871 1.60188 19.0313L4.09438 18.2446C4.31968 18.5523 4.75554 18.9893 5.41935 18.9893C6.08317 18.9893 6.51903 18.5523 6.74433 18.2446L8.2122 18.708L7.13256 18.9698C5.89585 19.2703 5.03226 20.4124 5.03226 21.7471V22.2467H5.80645V21.7471C5.80645 20.7936 6.42358 19.978 7.30683 19.7633L9.33606 19.2706L9.79234 21.6713L10.6023 21.1604L10.8313 21.8834L10.4923 25.0969H8.51613V21.8395H7.74194V25.0969H5.80645V24.2825C5.80645 23.6091 5.28535 23.061 4.64516 23.061ZM22.3981 19.0313C22.8933 19.1871 23.2258 19.6575 23.2258 20.2011V23.061H21.6774V20.2108H20.9032V23.061H19.3548C18.7147 23.061 18.1935 23.6091 18.1935 24.2825V25.0969H16.2581V21.8395H15.4839V25.0969H13.5077L13.1683 21.8834L13.3974 21.1604L14.2073 21.6713L14.6636 19.2706L16.6932 19.7633C17.5764 19.978 18.1935 20.7936 18.1935 21.7471V22.2467H18.9677V21.7471C18.9677 20.4124 18.1041 19.2703 16.8674 18.9698L15.7878 18.708L17.2557 18.2446C17.481 18.5523 17.9168 18.9893 18.5806 18.9893C19.2445 18.9893 19.6803 18.5523 19.9056 18.2446L22.3981 19.0313ZM19.3548 17.6559C19.2588 17.8118 18.9921 18.175 18.5806 18.175C18.1684 18.175 17.9013 17.8102 17.8065 17.6559V17.2406C18.0518 17.3179 18.3117 17.3607 18.5806 17.3607C18.8496 17.3607 19.1095 17.3179 19.3548 17.2406V17.6559ZM18.5806 16.5463C17.5135 16.5463 16.6452 15.633 16.6452 14.5105V14.1033H16.872C17.2092 14.1033 17.5312 14.0015 17.8065 13.8115C18.0817 14.0015 18.4037 14.1033 18.7409 14.1033H20.5161V14.5105C20.5161 15.633 19.6478 16.5463 18.5806 16.5463ZM18.5806 11.2531C19.6478 11.2531 20.5161 12.1665 20.5161 13.289H18.7409C18.495 13.289 18.2538 13.184 18.0801 13.0011L17.8065 12.7132L17.5328 13.0011C17.3591 13.184 17.1179 13.289 16.872 13.289H16.6452C16.6452 12.1665 17.5135 11.2531 18.5806 11.2531ZM15.871 12.5092C15.5285 12.2365 15.103 12.0675 14.6431 12.0675H14.1748L13.6987 11.0658L13.3339 11.3215C12.6375 11.8098 11.8278 12.0675 10.9916 12.0675H9.35685C8.89699 12.0675 8.47152 12.2365 8.12903 12.5092V11.907C8.12903 9.7507 9.79744 7.99578 11.8475 7.99578C12.8407 7.99578 13.7748 8.40255 14.477 9.14114L14.8877 9.57316L14.9745 9.60378C15.5105 9.79185 15.871 10.3175 15.871 10.912V12.5092ZM18.5806 1.48108C19.6478 1.48108 20.5161 2.39443 20.5161 3.51693H20.2893C20.0434 3.51693 19.8022 3.41195 19.6285 3.22905L19.3548 2.94117L19.0811 3.22905C18.9074 3.41195 18.6663 3.51693 18.4204 3.51693H16.6452C16.6452 2.39443 17.5135 1.48108 18.5806 1.48108ZM16.6452 4.73843V4.33126H18.4204C18.7576 4.33126 19.0796 4.22947 19.3548 4.03941C19.63 4.22947 19.9521 4.33126 20.2893 4.33126H20.5161V4.73843C20.5161 5.86093 19.6478 6.77427 18.5806 6.77427C17.5135 6.77427 16.6452 5.86093 16.6452 4.73843ZM18.5806 8.40295C18.1684 8.40295 17.9013 8.03813 17.8065 7.88385V7.46853C18.0518 7.54587 18.3117 7.58861 18.5806 7.58861C18.8496 7.58861 19.1095 7.54587 19.3548 7.46853V7.88345C19.2588 8.03972 18.9921 8.40295 18.5806 8.40295Z" fill="white" fill-opacity="0.7"/>
</svg>
