<svg width="24" height="26" viewBox="0 0 24 26" fill="none" xmlns="http://www.w3.org/2000/svg">
<path d="M8 0.718506C4.6863 0.718506 2 3.5441 2 7.02962V11.6578C2.00175 13.2836 3.25435 14.6011 4.8 14.603H5.2V13.7615H4.8C3.696 13.7601 2.8013 12.819 2.8 11.6578V7.02962C2.8 4.0088 5.1281 1.55999 8 1.55999C10.8719 1.55999 13.2 4.0088 13.2 7.02962V11.6578C13.1987 12.819 12.304 13.7601 11.2 13.7615H10.8V14.603H11.2C12.7457 14.6011 13.9983 13.2836 14 11.6578V7.02962C14 3.5441 11.3137 0.718506 8 0.718506Z" fill="white" fill-opacity="0.7"/>
<path d="M3.2964 20.5476L3.5888 20.0633L2.9132 19.6123L2.6208 20.097C1.73645 21.5628 1.8021 23.4503 2.786 24.8442V25.9629H3.586V24.7007C3.58605 24.6052 3.55515 24.5124 3.4984 24.4378C2.648 23.3195 2.56685 21.7566 3.2964 20.5476Z" fill="white" fill-opacity="0.7"/>
<path d="M22 0.718506H16.8C15.696 0.719873 14.8013 1.66097 14.8 2.82221V7.02962C14.8013 8.19086 15.696 9.13195 16.8 9.13332H17.6V10.8163C17.6 10.9864 17.6973 11.1399 17.8468 11.205C17.8954 11.2263 17.9474 11.2372 18 11.237C18.1061 11.237 18.2078 11.1926 18.2828 11.1137L20.1656 9.13332H22C23.104 9.13195 23.9987 8.19086 24 7.02962V2.82221C23.9987 1.66097 23.104 0.719873 22 0.718506ZM23.2 7.02962C23.2 7.72673 22.6628 8.29184 22 8.29184H20C19.8939 8.29184 19.7922 8.33623 19.7172 8.41512L18.4 9.80062V8.71258C18.4 8.48023 18.2209 8.29184 18 8.29184H16.8C16.1373 8.29184 15.6 7.72673 15.6 7.02962V2.82221C15.6 2.12509 16.1373 1.55999 16.8 1.55999H22C22.6628 1.55999 23.2 2.12509 23.2 2.82221V7.02962Z" fill="white" fill-opacity="0.7"/>
<path d="M19.6 2.82221H16.8V3.66369H19.6V2.82221Z" fill="white" fill-opacity="0.7"/>
<path d="M22 2.82221H20.4V3.66369H22V2.82221Z" fill="white" fill-opacity="0.7"/>
<path d="M22 4.50517H16.8V5.34665H22V4.50517Z" fill="white" fill-opacity="0.7"/>
<path d="M19.6 6.18814H16.8V7.02962H19.6V6.18814Z" fill="white" fill-opacity="0.7"/>
<path d="M13.3792 20.097L13.0868 19.6123L12.4112 20.0633L12.7036 20.548C13.4332 21.7569 13.352 23.3197 12.5016 24.4378C12.4448 24.5124 12.4139 24.6052 12.414 24.7007V25.9629H13.214V24.8442C14.1979 23.4503 14.2636 21.5628 13.3792 20.097Z" fill="white" fill-opacity="0.7"/>
<path d="M23.6 15.0237H20C18.4992 15.0255 17.2667 16.2717 17.2056 17.849L16 20.1319V18.3896C15.9983 16.7638 14.7457 15.4463 13.2 15.4444H11.738L11.7272 15.4356L11.72 15.4444H10.8C10.3582 15.4444 10 15.0677 10 14.603V13.6129C11.236 12.8623 11.9981 11.476 12 9.9748V6.60888C11.9994 5.91176 11.8345 5.22569 11.52 4.61204C11.4192 4.41682 11.1916 4.33756 11 4.43112L4.2296 7.7819C4.0894 7.85132 3.99995 7.99969 4 8.16267V9.9748C4.0019 11.476 4.76405 12.8623 6 13.6129V14.603C6 15.0677 5.64185 15.4444 5.2 15.4444H2.8C1.25435 15.4463 0.00175 16.7638 0 18.3896V25.9629H0.8V18.3896C0.8013 17.2284 1.696 16.2873 2.8 16.2859H4.0728L7.6748 21.5797C7.7488 21.6885 7.8676 21.7538 7.9948 21.7555H8C8.1259 21.7555 8.24445 21.6932 8.32 21.5872L12.12 16.2859H13.2C14.304 16.2873 15.1987 17.2284 15.2 18.3896V21.7555C15.2002 21.9879 15.3794 22.1761 15.6003 22.1759C15.7455 22.1758 15.8791 22.093 15.9496 21.9596L17.8352 18.3896H20.1284L16.2284 25.9629H17.1384L21.04 18.3896H21.2C22.7457 18.3878 23.9983 17.0702 24 15.4444C24 15.2121 23.8209 15.0237 23.6 15.0237ZM4.8 9.9748V8.42984L10.9764 5.37274C11.1242 5.76634 11.2 6.18572 11.2 6.60888V9.9748C11.2 11.8337 9.7673 13.3407 8 13.3407C6.2327 13.3407 4.8 11.8337 4.8 9.9748ZM8.0084 20.6246L6.774 18.8104H9.3084L8.0084 20.6246ZM9.9136 17.9689H6.2L5.0548 16.2859H5.2C6.08365 16.2859 6.8 15.5324 6.8 14.603V13.9882C7.5811 14.2468 8.4189 14.2468 9.2 13.9882V14.603C9.2 15.5324 9.91635 16.2859 10.8 16.2859H11.12L9.9136 17.9689ZM21.2 17.5481H18.04C18.2312 16.5692 19.0499 15.8663 20 15.8652H23.16C22.9688 16.8441 22.1501 17.547 21.2 17.5481Z" fill="white" fill-opacity="0.7"/>
</svg>
