<svg width="24" height="25" viewBox="0 0 24 25" fill="none" xmlns="http://www.w3.org/2000/svg">
<path d="M10.0053 2.26692C5.36787 2.26692 1.60849 6.02755 1.60849 10.6665C1.60849 15.3055 5.36787 19.0662 10.0053 19.0662C14.6428 19.0662 18.4021 15.3055 18.4021 10.6665C18.3971 6.02965 14.6407 2.27197 10.0053 2.26692ZM10.0053 3.06688C12.4752 3.06883 14.7897 4.27298 16.2094 6.29474L15.2097 7.29469C14.9665 7.14745 14.688 7.06865 14.4036 7.0667C13.5203 7.0667 12.8043 7.78302 12.8043 8.66663C12.8057 8.95137 12.884 9.2304 13.031 9.47419L10.4128 12.0933C9.917 11.7909 9.29393 11.7909 8.79817 12.0933L6.97966 10.2742C7.12665 10.0304 7.20497 9.75133 7.20637 9.46659C7.20747 8.58473 6.49374 7.86896 5.61217 7.86786C4.8831 7.86696 4.24609 8.36029 4.06436 9.06661H2.58092C3.33798 5.56942 6.42827 3.07213 10.0053 3.06688ZM15.2033 8.66663C15.2033 9.10846 14.8453 9.46659 14.4036 9.46659C13.962 9.46659 13.604 9.10846 13.604 8.66663C13.604 8.2248 13.962 7.86666 14.4036 7.86666C14.8453 7.86666 15.2033 8.2248 15.2033 8.66663ZM10.4052 13.4664C10.4052 13.9082 10.0471 14.2664 9.60546 14.2664C9.16378 14.2664 8.80577 13.9082 8.80577 13.4664C8.80577 13.0246 9.16378 12.6664 9.60546 12.6664C10.0471 12.6664 10.4052 13.0246 10.4052 13.4664ZM6.40667 9.46659C6.40667 9.90842 6.04866 10.2666 5.60698 10.2666C5.16529 10.2666 4.80728 9.90842 4.80728 9.46659C4.80728 9.02476 5.16529 8.66663 5.60698 8.66663C6.04866 8.66663 6.40667 9.02476 6.40667 9.46659ZM13.6966 17.3115C12.5674 17.9387 11.2969 18.2673 10.0053 18.2661C5.8124 18.269 2.41104 14.8712 2.40819 10.6769C2.40799 10.4062 2.42228 10.1357 2.45097 9.86652H4.06436C4.24614 10.5707 4.8799 11.0637 5.60698 11.0665C5.89162 11.0651 6.17056 10.9867 6.41427 10.8397L8.23278 12.6588C8.08579 12.9026 8.00747 13.1816 8.00607 13.4664C8.00607 14.35 8.72215 15.0663 9.60546 15.0663C10.4888 15.0663 11.2049 14.35 11.2049 13.4664C11.2035 13.1816 11.1251 12.9026 10.9781 12.6588L13.5964 10.0397C13.8401 10.1868 14.119 10.2651 14.4036 10.2665C15.287 10.2665 16.003 9.55019 16.003 8.66658C16.0016 8.38184 15.9233 8.1028 15.7763 7.85901L16.648 6.98746C18.683 10.6537 17.3616 15.2759 13.6966 17.3115Z" fill="white" fill-opacity="0.7"/>
<path d="M20.0015 4.66712C20.7286 4.66437 21.3624 4.17144 21.5441 3.46717H24V2.66721H21.5441C21.3624 1.96294 20.7286 1.47001 20.0015 1.46726C19.1182 1.46726 18.4021 2.18358 18.4021 3.06719C18.4035 3.35193 18.4819 3.63097 18.6288 3.87475L17.9263 4.57752C14.5648 0.196672 8.28961 -0.62879 3.91022 2.73381C-0.469172 6.0964 -1.29436 12.3738 2.06712 16.7546C5.24012 20.8898 11.0565 21.8929 15.4305 19.0593L20.4214 24.0518C21.24 24.8707 22.5672 24.8707 23.3858 24.0518C24.2045 23.2329 24.2045 21.9053 23.3858 21.0864L18.3949 16.0938C20.5371 12.7931 20.5371 8.54059 18.3949 5.23989L19.1946 4.43993C19.4382 4.58702 19.717 4.66552 20.0015 4.66712ZM20.0015 2.26723C20.4432 2.26723 20.8012 2.62536 20.8012 3.06719C20.8012 3.50902 20.4432 3.86715 20.0015 3.86715C19.5598 3.86715 19.2018 3.50902 19.2018 3.06719C19.2018 2.62536 19.5599 2.26723 20.0015 2.26723ZM22.8205 21.6519C23.3326 22.1527 23.3419 22.974 22.8413 23.4863C22.3407 23.9985 21.5197 24.0079 21.0076 23.5071C21.0005 23.5003 20.9937 23.4933 20.9868 23.4863L17.768 20.2664L19.6017 18.4321L22.8205 21.6519ZM19.0363 17.8665L17.2026 19.7008L16.0958 18.5937C16.1522 18.5505 16.205 18.5029 16.2605 18.4585C16.3161 18.4141 16.3805 18.3609 16.4401 18.3109C16.5276 18.2373 16.614 18.1629 16.6988 18.0865C16.7424 18.0465 16.7839 18.0065 16.8267 17.9665C16.9907 17.8129 17.1494 17.6541 17.3029 17.4901C17.3429 17.4473 17.3829 17.4057 17.4229 17.3621C17.4993 17.2773 17.5736 17.1909 17.6472 17.1034C17.6974 17.0442 17.7465 16.9843 17.7948 16.9238C17.8387 16.8686 17.8863 16.8158 17.9295 16.7594L19.0363 17.8665ZM17.4857 16.0086C17.3597 16.1846 17.2298 16.357 17.0926 16.523C17.0526 16.5714 17.0099 16.6182 16.9687 16.6658C16.8463 16.8082 16.72 16.9463 16.5896 17.0802C16.5328 17.1388 16.4751 17.1965 16.4165 17.2533C16.2832 17.3837 16.1451 17.5101 16.0022 17.6325C15.9547 17.6725 15.9079 17.7161 15.8595 17.7565C15.6936 17.8937 15.5212 18.0237 15.3453 18.1497C11.2061 21.1078 5.45329 20.1492 2.49616 16.0086C-0.460976 11.868 0.497311 6.1133 4.63654 3.15519C8.77578 0.197072 14.5286 1.15563 17.4857 5.29629C19.7739 8.50024 19.7739 12.8046 17.4857 16.0086Z" fill="white" fill-opacity="0.7"/>
</svg>
