<svg width="36" height="39" viewBox="0 0 36 39" fill="none" xmlns="http://www.w3.org/2000/svg">
<path d="M4.14572 14.0043C4.24844 14.1125 4.3833 14.1668 4.51816 14.1668C4.65302 14.1668 4.78787 14.1127 4.89087 14.0043C5.09659 13.7877 5.09659 13.4363 4.89087 13.2197L3.6115 11.8725L4.89087 10.5256C5.09659 10.3087 5.09659 9.95762 4.89087 9.741C4.68515 9.52438 4.35144 9.52438 4.14572 9.741L2.49391 11.4803C2.39503 11.5844 2.33955 11.7256 2.33955 11.8725C2.33955 12.0197 2.39503 12.1608 2.49391 12.265L4.14572 14.0043Z" fill="white"/>
<path d="M9.37415 11.8725L8.09479 13.2197C7.88907 13.4363 7.88907 13.7877 8.09506 14.0043C8.19778 14.1125 8.33264 14.1668 8.4675 14.1668C8.60236 14.1668 8.73722 14.1125 8.83994 14.0043L10.492 12.2647C10.6977 12.0481 10.6977 11.6967 10.492 11.4803L8.83994 9.74072C8.63422 9.52409 8.30078 9.52409 8.09506 9.74072C7.88907 9.95763 7.88907 10.3087 8.09506 10.5253L9.37415 11.8725Z" fill="white"/>
<path d="M5.70743 14.1283C5.77061 14.1544 5.83598 14.1668 5.89997 14.1668C6.11036 14.1668 6.30894 14.0332 6.39051 13.8148L7.68829 10.3359C7.79485 10.0507 7.66137 9.72884 7.39055 9.61662C7.12001 9.5047 6.81404 9.64497 6.70775 9.93013L5.4097 13.4091C5.30341 13.6942 5.43662 14.0164 5.70743 14.1283Z" fill="white"/>
<path d="M3.16463 17.4216H6.71407C7.00493 17.4216 7.24087 17.1732 7.24087 16.8666C7.24087 16.5603 7.00493 16.3119 6.71407 16.3119H3.16463C2.87349 16.3119 2.63784 16.5603 2.63784 16.8666C2.63784 17.1732 2.87349 17.4216 3.16463 17.4216Z" fill="white"/>
<path d="M14.8891 16.3119H8.64878C8.35791 16.3119 8.12198 16.5603 8.12198 16.8666C8.12198 17.1732 8.35791 17.4216 8.64878 17.4216H14.8891C15.1802 17.4216 15.4161 17.1732 15.4161 16.8666C15.4161 16.5603 15.1802 16.3119 14.8891 16.3119Z" fill="white"/>
<path d="M3.16463 19.7616H4.67664C4.9675 19.7616 5.20344 19.5132 5.20344 19.2066C5.20344 18.9004 4.9675 18.6519 4.67664 18.6519H3.16463C2.87349 18.6519 2.63784 18.9004 2.63784 19.2066C2.63784 19.5132 2.87349 19.7616 3.16463 19.7616Z" fill="white"/>
<path d="M12.9615 18.6519C12.6704 18.6519 12.4347 18.9004 12.4347 19.2066C12.4347 19.5132 12.6704 19.7616 12.9615 19.7616H13.8822C14.1733 19.7616 14.4092 19.5132 14.4092 19.2066C14.4092 18.9004 14.1733 18.6519 13.8822 18.6519H12.9615Z" fill="white"/>
<path d="M11.5747 19.2066C11.5747 18.9004 11.3388 18.6519 11.0479 18.6519H6.52538C6.23424 18.6519 5.99858 18.9004 5.99858 19.2066C5.99858 19.5132 6.23424 19.7616 6.52538 19.7616H11.0479C11.3388 19.7616 11.5747 19.5132 11.5747 19.2066Z" fill="white"/>
<path d="M15.0261 19.2066C15.0261 19.5132 15.262 19.7616 15.5529 19.7616H17.2775C17.5686 19.7616 17.8046 19.5132 17.8046 19.2066C17.8046 18.9004 17.5686 18.6519 17.2775 18.6519H15.5529C15.262 18.6519 15.0261 18.9004 15.0261 19.2066Z" fill="white"/>
<path d="M12.1567 12.3176H13.9758C14.267 12.3176 14.5029 12.0692 14.5029 11.7626C14.5029 11.4563 14.267 11.2079 13.9758 11.2079H12.1567C11.8656 11.2079 11.6297 11.4563 11.6297 11.7626C11.6297 12.0692 11.8656 12.3176 12.1567 12.3176Z" fill="white"/>
<path d="M16.0132 12.3176H27.1125C27.4037 12.3176 27.6393 12.0692 27.6393 11.7626C27.6393 11.4563 27.4037 11.2079 27.1125 11.2079H16.0132C15.7221 11.2079 15.4862 11.4563 15.4862 11.7626C15.4862 12.0692 15.7221 12.3176 16.0132 12.3176Z" fill="white"/>
<path d="M25.4267 13.6488H20.9305C20.6396 13.6488 20.4037 13.8973 20.4037 14.2038C20.4037 14.5101 20.6396 14.7585 20.9305 14.7585H25.4267C25.7175 14.7585 25.9535 14.5101 25.9535 14.2038C25.9535 13.8973 25.7175 13.6488 25.4267 13.6488Z" fill="white"/>
<path d="M19.2446 13.6488H17.6991C17.408 13.6488 17.1723 13.8973 17.1723 14.2038C17.1723 14.5101 17.408 14.7585 17.6991 14.7585H19.2446C19.5358 14.7585 19.7714 14.5101 19.7714 14.2038C19.7714 13.8973 19.5358 13.6488 19.2446 13.6488Z" fill="white"/>
<path d="M12.1567 14.7585H15.9429C16.2338 14.7585 16.4697 14.5101 16.4697 14.2038C16.4697 13.8973 16.2338 13.6488 15.9429 13.6488H12.1567C11.8656 13.6488 11.6297 13.8973 11.6297 14.2038C11.6297 14.5101 11.8656 14.7585 12.1567 14.7585Z" fill="white"/>
<path d="M11.0545 20.9723H7.50536C7.21422 20.9723 6.97829 21.2207 6.97829 21.527C6.97829 21.8333 7.21422 22.0817 7.50536 22.0817H11.0545C11.3454 22.0817 11.5813 21.8333 11.5813 21.527C11.5813 21.2207 11.3454 20.9723 11.0545 20.9723Z" fill="white"/>
<path d="M5.89146 20.9723H3.16463C2.87349 20.9723 2.63784 21.2207 2.63784 21.527C2.63784 21.8333 2.87349 22.0817 3.16463 22.0817H5.89146C6.1826 22.0817 6.41826 21.8333 6.41826 21.527C6.41826 21.2207 6.1826 20.9723 5.89146 20.9723Z" fill="white"/>
<path d="M17.4884 20.9723H12.8519C12.5608 20.9723 12.3251 21.2207 12.3251 21.527C12.3251 21.8333 12.5608 22.0817 12.8519 22.0817H17.4884C17.7793 22.0817 18.0152 21.8333 18.0152 21.527C18.0152 21.2207 17.7793 20.9723 17.4884 20.9723Z" fill="white"/>
<path d="M23.7587 18.1224H21.2233C20.9324 18.1224 20.6965 18.3708 20.6965 18.6771C20.6965 18.9837 20.9324 19.2321 21.2233 19.2321H23.7587C24.0498 19.2321 24.2855 18.9837 24.2855 18.6771C24.2855 18.3708 24.0498 18.1224 23.7587 18.1224Z" fill="white"/>
<path d="M28.1582 19.2321H31.7373C32.0284 19.2321 32.2643 18.9837 32.2643 18.6771C32.2643 18.3708 32.0284 18.1224 31.7373 18.1224H28.1582C27.867 18.1224 27.6314 18.3708 27.6314 18.6771C27.6314 18.9837 27.8673 19.2321 28.1582 19.2321Z" fill="white"/>
<path d="M26.3685 18.1224H25.5484C25.2572 18.1224 25.0213 18.3708 25.0213 18.6771C25.0213 18.9837 25.2572 19.2321 25.5484 19.2321H26.3685C26.6596 19.2321 26.8953 18.9837 26.8953 18.6771C26.8953 18.3708 26.6596 18.1224 26.3685 18.1224Z" fill="white"/>
<path d="M21.2233 25.2778H23.7587C24.0498 25.2778 24.2855 25.0297 24.2855 24.7231C24.2855 24.4168 24.0498 24.1684 23.7587 24.1684H21.2233C20.9324 24.1684 20.6965 24.4168 20.6965 24.7231C20.6965 25.0297 20.9324 25.2778 21.2233 25.2778Z" fill="white"/>
<path d="M28.1582 25.2778H31.7373C32.0284 25.2778 32.2643 25.0297 32.2643 24.7231C32.2643 24.4168 32.0284 24.1684 31.7373 24.1684H28.1582C27.867 24.1684 27.6314 24.4168 27.6314 24.7231C27.6314 25.0297 27.8673 25.2778 28.1582 25.2778Z" fill="white"/>
<path d="M25.5483 25.2778H26.3685C26.6596 25.2778 26.8956 25.0297 26.8956 24.7231C26.8956 24.4168 26.6596 24.1684 26.3685 24.1684H25.5483C25.2572 24.1684 25.0215 24.4168 25.0215 24.7231C25.0215 25.0297 25.2572 25.2778 25.5483 25.2778Z" fill="white"/>
<path d="M23.7587 30.2144H21.2233C20.9324 30.2144 20.6965 30.4628 20.6965 30.7691C20.6965 31.0754 20.9324 31.3238 21.2233 31.3238H23.7587C24.0498 31.3238 24.2855 31.0754 24.2855 30.7691C24.2855 30.4628 24.0498 30.2144 23.7587 30.2144Z" fill="white"/>
<path d="M31.7373 30.2144H28.1582C27.867 30.2144 27.6314 30.4628 27.6314 30.7691C27.6314 31.0754 27.867 31.3238 28.1582 31.3238H31.7373C32.0284 31.3238 32.2643 31.0754 32.2643 30.7691C32.2643 30.4628 32.0284 30.2144 31.7373 30.2144Z" fill="white"/>
<path d="M26.3685 30.2144H25.5484C25.2572 30.2144 25.0213 30.4628 25.0213 30.7691C25.0213 31.0754 25.2572 31.3238 25.5484 31.3238H26.3685C26.6596 31.3238 26.8953 31.0754 26.8953 30.7691C26.8953 30.4628 26.6596 30.2144 26.3685 30.2144Z" fill="white"/>
<path d="M33.6816 0.192627H2.31896C1.04041 0.192627 0 1.28788 0 2.63445V29.4783C0 30.8246 1.04041 31.9199 2.31896 31.9199H4.30173C4.5926 31.9199 4.82853 31.6717 4.82853 31.3652C4.82853 31.0589 4.5926 30.8105 4.30173 30.8105H2.31896C1.62132 30.8105 1.05387 30.2129 1.05387 29.4783V27.3737H20.2491V28.3299H19.8313C19.2597 28.3299 18.795 28.8192 18.795 29.4211V30.8105H7.50509C7.21423 30.8105 6.97829 31.0589 6.97829 31.3652C6.97829 31.6717 7.21423 31.9199 7.50509 31.9199H12.5709V33.9097H10.9801C9.91881 33.9097 9.05555 34.8189 9.05555 35.9362V37.1347C9.05555 37.6446 9.44941 38.0593 9.93364 38.0593H26.0265C26.5108 38.0593 26.9046 37.6446 26.9046 37.1347V35.9362C26.9046 34.8189 26.0414 33.9097 24.9801 33.9097H23.3892V33.2083H33.1295C33.7008 33.2083 34.1655 32.719 34.1655 32.1171V31.856C35.1925 31.6049 35.9602 30.6346 35.9602 29.4783L36 2.63416C36.0003 1.28788 34.9601 0.192627 33.6816 0.192627ZM19.8489 26.0529V23.3936H33.1119V26.0529H19.8489ZM21.3027 22.2839V21.1166H31.6579V22.2839H21.3027ZM31.6579 27.1623V28.3299H21.3027V27.1623H31.6579ZM13.6245 31.9199H18.795V32.1174C18.795 32.719 19.2597 33.2083 19.8313 33.2083H22.3357V33.9097H13.6245V31.9199ZM24.9804 35.0194C25.4605 35.0194 25.851 35.4306 25.851 35.9362V36.9499H10.1091V35.9362C10.1091 35.4306 10.5 35.0194 10.9801 35.0194H24.9804ZM33.1119 32.0986H19.8489V29.4396H33.1119V32.0986ZM34.9066 29.4783C34.9066 30.0157 34.6023 30.4787 34.1658 30.689V29.4208C34.1658 28.8192 33.7008 28.3299 33.1295 28.3299H32.7118V27.3737H34.9066V29.4783ZM34.9066 26.2643H34.1485C34.1592 26.2016 34.1658 23.3751 34.1658 23.3751C34.1658 22.7732 33.7008 22.2839 33.1295 22.2839H32.7118V21.1166H33.1295C33.7008 21.1166 34.1658 20.627 34.1658 20.0254V17.3291C34.1658 16.7275 33.7008 16.2379 33.1295 16.2379H30.1536C29.8624 16.2379 29.6268 16.4863 29.6268 16.7929C29.6268 17.0992 29.8624 17.3476 30.1536 17.3476H33.1119V20.0069H19.8489V17.3476H26.8752C27.1664 17.3476 27.402 17.0992 27.402 16.7929C27.402 16.4863 27.1664 16.2379 26.8752 16.2379H19.8313C19.2597 16.2379 18.795 16.7275 18.795 17.3291V20.0254C18.795 20.627 19.2597 21.1166 19.8313 21.1166H20.2491V22.2839H19.8313C19.2597 22.2839 18.795 22.7735 18.795 23.3751C18.795 23.3751 18.8016 26.2016 18.8123 26.2643H1.05387V7.73935H34.9066V26.2643ZM34.9066 6.62964H1.0926V2.63416C1.0926 1.89985 1.66005 1.30234 2.35768 1.30234H33.6415C34.3391 1.30234 34.9066 1.89985 34.9066 2.63445V6.62964Z" fill="white"/>
<path d="M3.88561 2.32211C3.03307 2.32211 2.33955 3.05237 2.33955 3.95009C2.33955 4.84781 3.03307 5.57836 3.88561 5.57836C4.73816 5.57836 5.43195 4.84781 5.43195 3.95009C5.43195 3.05237 4.73816 2.32211 3.88561 2.32211ZM3.88561 4.46865C3.61425 4.46865 3.39315 4.23612 3.39315 3.95009C3.39315 3.66435 3.61425 3.43153 3.88561 3.43153C4.15725 3.43153 4.37808 3.66435 4.37808 3.95009C4.37808 4.23612 4.15725 4.46865 3.88561 4.46865Z" fill="white"/>
<path d="M7.82233 2.32211C6.96978 2.32211 6.27599 3.05237 6.27599 3.95009C6.27599 4.84781 6.96978 5.57836 7.82233 5.57836C8.67487 5.57836 9.36839 4.84781 9.36839 3.95009C9.36839 3.05237 8.6746 2.32211 7.82233 2.32211ZM7.82233 4.46865C7.55069 4.46865 7.32986 4.23612 7.32986 3.95009C7.32986 3.66435 7.55069 3.43153 7.82233 3.43153C8.09369 3.43153 8.31479 3.66435 8.31479 3.95009C8.31479 4.23612 8.09369 4.46865 7.82233 4.46865Z" fill="white"/>
<path d="M11.7588 2.32211C10.9062 2.32211 10.2127 3.05237 10.2127 3.95009C10.2127 4.84781 10.9062 5.57836 11.7588 5.57836C12.6113 5.57836 13.3051 4.84781 13.3051 3.95009C13.3051 3.05237 12.6113 2.32211 11.7588 2.32211ZM11.7588 4.46865C11.4874 4.46865 11.2663 4.23612 11.2663 3.95009C11.2663 3.66435 11.4874 3.43153 11.7588 3.43153C12.0304 3.43153 12.2512 3.66435 12.2512 3.95009C12.2512 4.23612 12.0304 4.46865 11.7588 4.46865Z" fill="white"/>
</svg>
